<svg width="44" height="44" viewBox="0 0 44 44" fill="none" xmlns="http://www.w3.org/2000/svg">
<g id="g1749">
<g id="g1751">
<g id="Clip path group">
<mask id="mask0_262_1294" style="mask-type:luminance" maskUnits="userSpaceOnUse" x="0" y="0" width="44" height="44">
<g id="clipPath1757">
<path id="path1755" d="M0 3.8147e-06H44V44H0V3.8147e-06Z" fill="white"/>
</g>
</mask>
<g mask="url(#mask0_262_1294)">
<g id="g1753">
<g id="g1759">
<path id="path1761" d="M34.1969 9.90039H1.50854C1.034 9.90039 0.64917 9.51565 0.64917 9.04102V4.31308C0.64917 3.83853 1.034 3.4537 1.50854 3.4537H42.5007C42.9754 3.4537 43.3601 3.83853 43.3601 4.31308V9.04102C43.3601 9.51565 42.9754 9.90039 42.5007 9.90039H37.2047" stroke="#60484B" stroke-width="1.28906" stroke-miterlimit="10" stroke-linecap="round" stroke-linejoin="round"/>
</g>
<g id="g1763">
<path id="path1765" d="M40.782 9.9001V37.9688C40.782 39.3926 39.6277 40.5469 38.2039 40.5469H5.80542C4.38161 40.5469 3.22729 39.3926 3.22729 37.9688V9.9001" stroke="#60484B" stroke-width="1.28906" stroke-miterlimit="10" stroke-linecap="round" stroke-linejoin="round"/>
</g>
<g id="g1767">
<path id="path1769" d="M11.2957 32.4031C9.91685 30.3511 9.1123 27.8808 9.1123 25.2227C9.1123 18.1033 14.8836 12.332 22.0029 12.332C29.1223 12.332 34.8936 18.1033 34.8936 25.2227C34.8936 32.342 29.1223 38.1133 22.0029 38.1133C18.6219 38.1133 15.5449 36.8116 13.2457 34.6821" stroke="#60484B" stroke-width="1.28906" stroke-miterlimit="10" stroke-linecap="round" stroke-linejoin="round"/>
</g>
<g id="g1771">
<path id="path1773" d="M22.0014 30.5352C21.2895 30.5352 20.7123 29.958 20.7123 29.2461V26.4201C20.7123 25.1336 21.5778 24.0102 22.817 23.6881C24.2378 23.3187 25.2301 22.0336 25.2301 20.5629C25.2301 19.6836 24.8829 18.8616 24.2523 18.2482C23.6223 17.6353 22.7902 17.3126 21.9089 17.3354C20.2209 17.3822 18.8446 18.7396 18.7755 20.4258C18.7509 21.0272 18.8914 21.6191 19.1817 22.1375C19.5297 22.7587 19.3082 23.5442 18.687 23.8922C18.066 24.2401 17.2804 24.0186 16.9325 23.3974C16.4088 22.4626 16.1554 21.3986 16.1995 20.3204C16.3238 17.2855 18.8004 14.8424 21.8377 14.7583C23.4211 14.7131 24.9166 15.2976 26.05 16.4002C27.1838 17.5031 27.8083 18.9815 27.8083 20.5629C27.8083 23.2074 26.0225 25.5186 23.4657 26.1833C23.3625 26.2101 23.2905 26.3075 23.2905 26.4201V29.2461C23.2905 29.958 22.7133 30.5352 22.0014 30.5352Z" stroke="#60484B" stroke-width="1.28906" stroke-miterlimit="10" stroke-linecap="round" stroke-linejoin="round"/>
</g>
<g id="g1775">
<path id="path1777" d="M23.2764 34.4023C23.2764 35.1143 22.6992 35.6914 21.9873 35.6914C21.2754 35.6914 20.6982 35.1143 20.6982 34.4023C20.6982 33.6904 21.2754 33.1133 21.9873 33.1133C22.6992 33.1133 23.2764 33.6904 23.2764 34.4023Z" stroke="#60484B" stroke-width="1.28906" stroke-miterlimit="10" stroke-linecap="round" stroke-linejoin="round"/>
</g>
</g>
</g>
</g>
</g>
</g>
</svg>
