<svg width="16" height="16" viewBox="0 0 16 16" fill="none" xmlns="http://www.w3.org/2000/svg">
<g id="Icons set ">
<path id="Vector" d="M6.95341 4.88065L5.90675 4.28065C6.25341 3.73398 6.74008 3.33398 7.29341 3.13398C7.25225 2.99961 7.16927 2.88189 7.05656 2.79795C6.94384 2.71402 6.80728 2.66825 6.66675 2.66732V1.33398C7.18008 1.33398 7.64675 1.52732 8.00008 1.84732V2.66732C8.30008 2.66732 8.54008 2.86732 8.62675 3.13398C7.88675 3.38732 7.28675 4.03398 6.95341 4.88065ZM6.66675 7.33398C6.66675 6.82065 6.82008 6.33398 7.06675 5.94065L6.17341 5.43398C5.66675 5.62732 5.33341 6.10732 5.33341 6.66732V7.33398C5.33341 12.034 8.60008 13.8673 10.0201 14.4407C8.27341 13.0807 6.66675 10.8007 6.66675 7.33398ZM4.28675 4.88065L3.24008 4.28065C3.58675 3.73398 4.07341 3.33398 4.62675 3.13398C4.58558 2.99961 4.50261 2.88189 4.38989 2.79795C4.27718 2.71402 4.14061 2.66825 4.00008 2.66732V1.33398C4.51341 1.33398 4.98008 1.52732 5.33341 1.84732V2.66732C5.63341 2.66732 5.87341 2.86732 5.96008 3.13398C5.22008 3.38732 4.62008 4.03398 4.28675 4.88065ZM4.00008 7.33398C4.00008 6.82065 4.15341 6.33398 4.40008 5.94065L3.50675 5.43398C3.00008 5.62732 2.66675 6.10732 2.66675 6.66732V7.33398C2.66675 12.034 5.93341 13.8673 7.35341 14.4407C5.60675 13.0807 4.00008 10.8007 4.00008 7.33398ZM12.6667 5.52065L11.8334 6.00065L10.6667 5.33398L9.50008 6.00065L8.66675 5.52065C8.26675 5.75398 8.00008 6.18065 8.00008 6.66732V7.33398C8.00008 13.334 13.3334 14.6673 13.3334 14.6673V6.66732C13.3334 6.18065 13.0667 5.75398 12.6667 5.52065ZM8.48675 4.42065L9.50008 5.00065L10.6667 4.33398L11.8334 5.00065L12.8467 4.42065C12.4801 3.77398 11.9401 3.29398 11.3134 3.10065C11.2569 2.61482 11.0241 2.16661 10.6592 1.84098C10.2943 1.51536 9.82251 1.33496 9.33342 1.33398V2.66732C9.62675 2.66732 9.86675 2.86065 9.96008 3.12732C9.35341 3.33398 8.84008 3.80065 8.48675 4.42065Z" fill="#4D3B3D"/>
</g>
</svg>
