<svg width="19" height="20" viewBox="0 0 19 20" fill="none" xmlns="http://www.w3.org/2000/svg">
<g id="ion:filter">
<path id="Vector" d="M17.5156 6.73438H1.48438C1.24817 6.73438 1.02163 6.64054 0.854608 6.47352C0.687583 6.30649 0.59375 6.07996 0.59375 5.84375C0.59375 5.60754 0.687583 5.38101 0.854608 5.21398C1.02163 5.04696 1.24817 4.95313 1.48438 4.95312H17.5156C17.7518 4.95312 17.9784 5.04696 18.1454 5.21398C18.3124 5.38101 18.4062 5.60754 18.4062 5.84375C18.4062 6.07996 18.3124 6.30649 18.1454 6.47352C17.9784 6.64054 17.7518 6.73438 17.5156 6.73438ZM14.5469 10.8906H4.45312C4.21692 10.8906 3.99038 10.7968 3.82336 10.6298C3.65633 10.4627 3.5625 10.2362 3.5625 10C3.5625 9.76379 3.65633 9.53726 3.82336 9.37023C3.99038 9.20321 4.21692 9.10938 4.45312 9.10938H14.5469C14.7831 9.10938 15.0096 9.20321 15.1766 9.37023C15.3437 9.53726 15.4375 9.76379 15.4375 10C15.4375 10.2362 15.3437 10.4627 15.1766 10.6298C15.0096 10.7968 14.7831 10.8906 14.5469 10.8906ZM10.9844 15.0469H8.01562C7.77942 15.0469 7.55288 14.953 7.38586 14.786C7.21883 14.619 7.125 14.3925 7.125 14.1562C7.125 13.92 7.21883 13.6935 7.38586 13.5265C7.55288 13.3595 7.77942 13.2656 8.01562 13.2656H10.9844C11.2206 13.2656 11.4471 13.3595 11.6141 13.5265C11.7812 13.6935 11.875 13.92 11.875 14.1562C11.875 14.3925 11.7812 14.619 11.6141 14.786C11.4471 14.953 11.2206 15.0469 10.9844 15.0469Z" fill="black"/>
</g>
</svg>
