<svg width="32" height="32" viewBox="0 0 32 32" fill="none" xmlns="http://www.w3.org/2000/svg">
<path d="M18.1239 16.0026L24.0614 10.0651C24.3431 9.78381 24.5017 9.40209 24.502 9.00393C24.5024 8.60576 24.3445 8.22377 24.0632 7.94198C23.7819 7.66018 23.4002 7.50168 23.0021 7.50133C22.6039 7.50097 22.2219 7.65881 21.9401 7.9401L16.0026 13.8776L10.0651 7.9401C9.78331 7.65831 9.40112 7.5 9.0026 7.5C8.60409 7.5 8.22189 7.65831 7.9401 7.9401C7.65831 8.22189 7.5 8.60409 7.5 9.0026C7.5 9.40112 7.65831 9.78331 7.9401 10.0651L13.8776 16.0026L7.9401 21.9401C7.65831 22.2219 7.5 22.6041 7.5 23.0026C7.5 23.4011 7.65831 23.7833 7.9401 24.0651C8.22189 24.3469 8.60409 24.5052 9.0026 24.5052C9.40112 24.5052 9.78331 24.3469 10.0651 24.0651L16.0026 18.1276L21.9401 24.0651C22.2219 24.3469 22.6041 24.5052 23.0026 24.5052C23.4011 24.5052 23.7833 24.3469 24.0651 24.0651C24.3469 23.7833 24.5052 23.4011 24.5052 23.0026C24.5052 22.6041 24.3469 22.2219 24.0651 21.9401L18.1239 16.0026Z" fill="#60484B"/>
</svg>
