<svg width="16" height="16" viewBox="0 0 16 16" fill="none" xmlns="http://www.w3.org/2000/svg">
<g id="Icons set ">
<path id="Vector" d="M4.88659 12.22C4.33325 11.4466 4.33325 10.5533 4.33325 9.66664C5.44659 10.3333 6.55325 11 7.11325 11.78L7.33325 12.1533V10.6333C6.33325 10.0333 5.38659 9.41997 4.88659 8.71997C4.33325 7.94664 4.33325 7.05331 4.33325 6.16664C5.44659 6.83331 6.55325 7.49997 7.11325 8.27997L7.33325 8.66664V7.13331C6.33325 6.53331 5.38659 5.91997 4.88659 5.21997C4.33325 4.44664 4.33325 3.55331 4.33325 2.66664C5.44659 3.33331 6.55325 3.99997 7.11325 4.77997C7.17992 4.87331 7.23992 4.97331 7.29325 5.07997C7.17992 4.66664 7.10659 4.27997 7.09992 3.87997C7.09325 2.87331 7.53325 1.83997 7.97325 0.806641C8.43325 1.79331 8.89325 2.78664 8.89992 3.79331C8.90659 4.21331 8.83325 4.63997 8.71325 5.05997C8.76659 4.96664 8.81992 4.87331 8.88659 4.77997C9.44659 3.99997 10.5533 3.33331 11.6666 2.66664C11.6666 3.55331 11.6666 4.44664 11.1133 5.21997C10.6133 5.91997 9.66659 6.53331 8.66659 7.13331V8.66664L8.88659 8.27997C9.44659 7.49997 10.5533 6.83331 11.6666 6.16664C11.6666 7.05331 11.6666 7.94664 11.1133 8.71997C10.6133 9.41997 9.66659 10.0333 8.66659 10.6333V12.1533L8.88659 11.78C9.44659 11 10.5533 10.3333 11.6666 9.66664C11.6666 10.5533 11.6666 11.4466 11.1133 12.22C10.6133 12.92 9.66659 13.5333 8.66659 14.1333V15.3333H7.33325V14.1333C6.33325 13.5333 5.38659 12.92 4.88659 12.22Z" fill="#4D3B3D"/>
</g>
</svg>
