<svg width="16" height="16" viewBox="0 0 16 16" fill="none" xmlns="http://www.w3.org/2000/svg">
<g id="mdi:account-outline">
<path id="Vector" d="M7.99984 2.66602C8.70708 2.66602 9.38536 2.94697 9.88546 3.44706C10.3856 3.94716 10.6665 4.62544 10.6665 5.33268C10.6665 6.03993 10.3856 6.7182 9.88546 7.2183C9.38536 7.7184 8.70708 7.99935 7.99984 7.99935C7.29259 7.99935 6.61432 7.7184 6.11422 7.2183C5.61412 6.7182 5.33317 6.03993 5.33317 5.33268C5.33317 4.62544 5.61412 3.94716 6.11422 3.44706C6.61432 2.94697 7.29259 2.66602 7.99984 2.66602ZM7.99984 3.99935C7.64622 3.99935 7.30708 4.13982 7.05703 4.38987C6.80698 4.63992 6.6665 4.97906 6.6665 5.33268C6.6665 5.6863 6.80698 6.02544 7.05703 6.27549C7.30708 6.52554 7.64622 6.66602 7.99984 6.66602C8.35346 6.66602 8.6926 6.52554 8.94265 6.27549C9.19269 6.02544 9.33317 5.6863 9.33317 5.33268C9.33317 4.97906 9.19269 4.63992 8.94265 4.38987C8.6926 4.13982 8.35346 3.99935 7.99984 3.99935ZM7.99984 8.66602C9.77984 8.66602 13.3332 9.55268 13.3332 11.3327V13.3327H2.6665V11.3327C2.6665 9.55268 6.21984 8.66602 7.99984 8.66602ZM7.99984 9.93268C6.01984 9.93268 3.93317 10.906 3.93317 11.3327V12.066H12.0665V11.3327C12.0665 10.906 9.97984 9.93268 7.99984 9.93268Z" fill="#60484B"/>
</g>
</svg>
