<svg width="20" height="21" viewBox="0 0 20 21" fill="none" xmlns="http://www.w3.org/2000/svg">
<g id="Frame 39762" clip-path="url(#clip0_43_515)">
<path id="Vector" d="M20 8.71436V9.42864C20 10.0204 19.6269 10.5001 19.1667 10.5001H18.8889L17.9822 18.6602C17.8649 19.7159 17.1617 20.5 16.3323 20.5H3.66771C2.8383 20.5 2.1351 19.7159 2.01778 18.6602L1.11111 10.5001H0.833333C0.37309 10.5001 0 10.0204 0 9.42864V8.71436C0 8.12262 0.37309 7.64294 0.833333 7.64294H3.17156L6.8792 1.08847C7.24014 0.450439 7.935 0.309324 8.43132 0.773384C8.9276 1.23744 9.03733 2.13088 8.67639 2.76895L5.91934 7.64294H14.0807L11.3236 2.76891C10.9627 2.13088 11.0724 1.2374 11.5687 0.773339C12.0649 0.309279 12.7599 0.45035 13.1208 1.08843L16.8284 7.64294H19.1667C19.6269 7.64294 20 8.12262 20 8.71436ZM10.8333 16.5715V11.5715C10.8333 10.9797 10.4602 10.5001 10 10.5001C9.53976 10.5001 9.16667 10.9797 9.16667 11.5715V16.5715C9.16667 17.1632 9.53976 17.6429 10 17.6429C10.4602 17.6429 10.8333 17.1632 10.8333 16.5715ZM14.7222 16.5715V11.5715C14.7222 10.9797 14.3491 10.5001 13.8889 10.5001C13.4286 10.5001 13.0556 10.9797 13.0556 11.5715V16.5715C13.0556 17.1632 13.4286 17.6429 13.8889 17.6429C14.3491 17.6429 14.7222 17.1632 14.7222 16.5715ZM6.94444 16.5715V11.5715C6.94444 10.9797 6.57135 10.5001 6.11111 10.5001C5.65087 10.5001 5.27778 10.9797 5.27778 11.5715V16.5715C5.27778 17.1632 5.65087 17.6429 6.11111 17.6429C6.57135 17.6429 6.94444 17.1632 6.94444 16.5715Z" fill="#60484B"/>
</g>
<defs>
<clipPath id="clip0_43_515">
<rect width="20" height="20" fill="white" transform="translate(0 0.5)"/>
</clipPath>
</defs>
</svg>
