<svg width="18" height="18" viewBox="0 0 18 18" fill="none" xmlns="http://www.w3.org/2000/svg">
<path id="Vector" d="M18 7.39292V8.03578C18 8.56834 17.6642 9.00006 17.25 9.00006H17L16.184 16.3442C16.0784 17.2943 15.4455 18 14.6991 18H3.30094C2.55447 18 1.92159 17.2943 1.816 16.3442L1 9.00006H0.75C0.335781 9.00006 0 8.56834 0 8.03578V7.39292C0 6.86036 0.335781 6.42864 0.75 6.42864H2.85441L6.19128 0.529624C6.51613 -0.0446046 7.1415 -0.171608 7.58819 0.246045C8.03484 0.663699 8.13359 1.46779 7.80875 2.04206L5.32741 6.42864H12.6726L10.1912 2.04202C9.86641 1.46779 9.96519 0.663659 10.4118 0.246005C10.8584 -0.171649 11.4839 -0.0446849 11.8088 0.529584L15.1456 6.42864H17.25C17.6642 6.42864 18 6.86036 18 7.39292ZM9.75 14.4643V9.96434C9.75 9.43177 9.41422 9.00006 9 9.00006C8.58578 9.00006 8.25 9.43177 8.25 9.96434V14.4643C8.25 14.9969 8.58578 15.4286 9 15.4286C9.41422 15.4286 9.75 14.9969 9.75 14.4643ZM13.25 14.4643V9.96434C13.25 9.43177 12.9142 9.00006 12.5 9.00006C12.0858 9.00006 11.75 9.43177 11.75 9.96434V14.4643C11.75 14.9969 12.0858 15.4286 12.5 15.4286C12.9142 15.4286 13.25 14.9969 13.25 14.4643ZM6.25 14.4643V9.96434C6.25 9.43177 5.91422 9.00006 5.5 9.00006C5.08578 9.00006 4.75 9.43177 4.75 9.96434V14.4643C4.75 14.9969 5.08578 15.4286 5.5 15.4286C5.91422 15.4286 6.25 14.9969 6.25 14.4643Z" fill="white"/>
</svg>
