<svg width="16" height="16" viewBox="0 0 16 16" fill="none" xmlns="http://www.w3.org/2000/svg">
<g id="Icons set " clip-path="url(#clip0_262_652)">
<path id="Vector" d="M2 1C0.896875 1 0 1.89688 0 3C0 4.10313 0.896875 5 2 5H2.03125C2.14687 7.77812 4.4375 10 7.25 10H9V4H2C1.44687 4 1 3.55312 1 3C1 2.44687 1.44687 2 2 2H14.5C14.775 2 15 1.775 15 1.5C15 1.225 14.775 1 14.5 1H2ZM7 14.25C7 14.6656 7.33437 15 7.75 15H10V12.7437L7.99687 12.0437C7.60625 11.9062 7.17812 12.1125 7.04063 12.5031C6.90313 12.8938 7.10938 13.3219 7.5 13.4594L7.64062 13.5094C7.28125 13.5594 7 13.8719 7 14.25ZM11 14.9781C12.1375 14.875 13.1719 14.4281 14.0031 13.7406L11.3 12.6594C11.2063 12.7156 11.1062 12.7594 11 12.7937V14.9781ZM14.7688 12.9688C15.5375 12.0219 16 10.8156 16 9.5C16 9.11563 15.9594 8.74063 15.8844 8.37813L11.9625 11.0969C11.9875 11.2031 12 11.3156 12 11.4281C12 11.5719 11.9781 11.7094 11.9406 11.8375L14.7688 12.9688ZM10.5 4H10V10H10.5719C10.8812 10 11.1687 10.1 11.4031 10.2656L15.575 7.37813C14.7437 5.39375 12.7844 4 10.5 4ZM5.25 6C5.25 5.80109 5.32902 5.61032 5.46967 5.46967C5.61032 5.32902 5.80109 5.25 6 5.25C6.19891 5.25 6.38968 5.32902 6.53033 5.46967C6.67098 5.61032 6.75 5.80109 6.75 6C6.75 6.19891 6.67098 6.38968 6.53033 6.53033C6.38968 6.67098 6.19891 6.75 6 6.75C5.80109 6.75 5.61032 6.67098 5.46967 6.53033C5.32902 6.38968 5.25 6.19891 5.25 6Z" fill="#4D3B3D"/>
<line id="Line 3" x1="1.80466" y1="0.194611" x2="15.8047" y2="14.1946" stroke="#4D3B3D" stroke-width="1.33333"/>
<line id="Line 4" x1="2.4714" y1="-0.471405" x2="16.4714" y2="13.5286" stroke="#F1EEEE" stroke-width="1.33333"/>
</g>
<defs>
<clipPath id="clip0_262_652">
<rect width="16" height="16" fill="white"/>
</clipPath>
</defs>
</svg>
