<svg width="44" height="44" viewBox="0 0 44 44" fill="none" xmlns="http://www.w3.org/2000/svg">
<g clip-path="url(#clip0_1704_2)">
<mask id="mask0_1704_2" style="mask-type:luminance" maskUnits="userSpaceOnUse" x="0" y="0" width="44" height="44">
<path d="M44 0H0V44H44V0Z" fill="white"/>
</mask>
<g mask="url(#mask0_1704_2)">
<path fill-rule="evenodd" clip-rule="evenodd" d="M0.391785 41.6895C0.115766 42.3101 0.250076 43.0368 0.730834 43.5171C1.21116 43.9975 1.93785 44.1322 2.55847 43.8562C9.01213 40.9827 27.427 32.7834 32.4129 30.5635C32.9066 30.3439 33.2604 29.8951 33.3591 29.3634C33.4578 28.8322 33.2883 28.2861 32.9057 27.904C29.7071 24.7055 19.5426 14.5409 16.344 11.3419C15.9619 10.9598 15.4159 10.7902 14.8846 10.8889C14.3529 10.9876 13.9041 11.3414 13.684 11.8351L0.391785 41.6895ZM1.66126 42.2545L14.9535 12.4001C14.9873 12.3241 15.0559 12.27 15.1374 12.2551C15.2189 12.2398 15.3027 12.2658 15.3611 12.3246L31.9233 28.8863C31.9821 28.9451 32.008 29.0289 31.9928 29.1105C31.978 29.1915 31.9233 29.2605 31.8478 29.2944L1.99334 42.5866C1.89837 42.6287 1.78675 42.6084 1.71312 42.5348C1.63949 42.4611 1.61865 42.3495 1.66126 42.2545Z" fill="#60484B"/>
<path fill-rule="evenodd" clip-rule="evenodd" d="M11.0583 19.3004C11.489 19.5366 11.8118 19.8998 12.0063 20.3647C12.3125 21.096 12.714 22.0553 13.0197 22.7866C13.3912 23.674 14.0498 24.3331 14.9372 24.7041C15.6685 25.0103 16.6282 25.4118 17.3591 25.7175C17.9014 25.9444 18.3043 26.3469 18.5313 26.8893C18.837 27.6206 19.2385 28.5802 19.5447 29.3116C19.9156 30.1986 20.5748 30.8577 21.4621 31.2291C22.193 31.5348 23.1527 31.9364 23.884 32.242C24.349 32.4365 24.7121 32.7599 24.9483 33.1906C25.1326 33.5264 25.5555 33.6501 25.8913 33.4657C26.2276 33.2814 26.3512 32.8585 26.1669 32.5223C25.7788 31.8146 25.1846 31.28 24.4203 30.9605C23.689 30.6543 22.7293 30.2532 21.9985 29.9471C21.4561 29.7202 21.0532 29.3177 20.8262 28.7753C20.5205 28.044 20.119 27.0843 19.8129 26.3534C19.4419 25.466 18.7828 24.8069 17.8954 24.4355C17.1645 24.1298 16.2048 23.7282 15.4735 23.4225C14.9311 23.1956 14.5282 22.7926 14.3017 22.2503C13.9955 21.5194 13.594 20.5597 13.2883 19.8284C12.9688 19.0642 12.4342 18.4699 11.7265 18.0818C11.3903 17.8975 10.9674 18.0207 10.7831 18.3569C10.5988 18.6932 10.722 19.1161 11.0583 19.3004ZM30.3174 30.4644L15.6968 15.8439C15.4254 15.5729 14.9854 15.5729 14.714 15.8439C14.443 16.1148 14.443 16.5552 14.714 16.8262L29.335 31.4473C29.606 31.7182 30.0464 31.7182 30.3174 31.4473C30.5888 31.1759 30.5888 30.7359 30.3174 30.4644Z" fill="#60484B"/>
<path fill-rule="evenodd" clip-rule="evenodd" d="M6.39739 29.7245C6.65491 29.8751 6.86748 30.0895 7.01573 30.3484C7.23292 30.7287 7.51826 31.2275 7.73552 31.6077C8.00969 32.0871 8.40429 32.4817 8.8837 32.7554C9.26351 32.9731 9.76234 33.2579 10.1426 33.4752C10.4061 33.6262 10.6233 33.8434 10.7739 34.1069C10.9916 34.4872 11.2764 34.986 11.4936 35.3658C11.7678 35.8452 12.1624 36.2398 12.6418 36.514C13.0221 36.7312 13.5209 37.0165 13.9007 37.2338C14.1601 37.3819 14.3745 37.5946 14.5246 37.8521C14.7182 38.1833 15.1439 38.2954 15.475 38.1022C15.8062 37.9087 15.9183 37.483 15.7251 37.1518C15.4514 36.6831 15.0619 36.2973 14.5908 36.0277C14.2106 35.8106 13.7118 35.5252 13.3315 35.308C13.068 35.157 12.8508 34.9402 12.7002 34.6762C12.4831 34.2964 12.1977 33.7976 11.9805 33.4174C11.7063 32.938 11.3117 32.5433 10.8323 32.2692C10.452 32.052 9.95321 31.7667 9.57339 31.5494C9.3094 31.3984 9.09264 31.1817 8.94161 30.9181C8.72442 30.5379 8.43908 30.039 8.22182 29.6588C7.95228 29.1873 7.56642 28.7982 7.09776 28.5245C6.7666 28.3313 6.34098 28.4435 6.14734 28.7746C5.9542 29.1058 6.06624 29.5314 6.39739 29.7245ZM19.3251 35.3594L12.1939 28.2276C11.9229 27.9567 11.4825 27.9567 11.2115 28.2276C10.9405 28.499 10.9405 28.939 11.2115 29.2105L18.3428 36.3417C18.6142 36.6127 19.0542 36.6127 19.3251 36.3417C19.5966 36.0704 19.5966 35.6304 19.3251 35.3594ZM10.501 26.5348L8.89017 24.9239C8.61921 24.653 8.17878 24.653 7.90782 24.9239C7.63685 25.1953 7.63685 25.6353 7.90782 25.9068L9.51869 27.5177C9.78966 27.7886 10.2301 27.7886 10.501 27.5177C10.7724 27.2462 10.7724 26.8062 10.501 26.5348Z" fill="#60484B"/>
<path fill-rule="evenodd" clip-rule="evenodd" d="M4.86499 12.8881V15.2373C4.86499 15.6208 5.17622 15.932 5.55973 15.932C5.94324 15.932 6.25448 15.6208 6.25448 15.2373V12.8881C6.25448 12.5046 5.94324 12.1934 5.55973 12.1934C5.17622 12.1934 4.86499 12.5046 4.86499 12.8881Z" fill="#60484B"/>
<path fill-rule="evenodd" clip-rule="evenodd" d="M28.4429 14.4975V16.8466C28.4429 17.2296 28.7541 17.5414 29.1376 17.5414C29.5206 17.5414 29.8324 17.2296 29.8324 16.8466V14.4975C29.8324 14.114 29.5206 13.8027 29.1376 13.8027C28.7541 13.8027 28.4429 14.114 28.4429 14.4975Z" fill="#60484B"/>
<path fill-rule="evenodd" clip-rule="evenodd" d="M23.6011 39.4428V41.7914C23.6011 42.175 23.9123 42.4862 24.2958 42.4862C24.6793 42.4862 24.9906 42.175 24.9906 41.7914V39.4428C24.9906 39.0593 24.6793 38.748 24.2958 38.748C23.9123 38.748 23.6011 39.0593 23.6011 39.4428Z" fill="#60484B"/>
<path fill-rule="evenodd" clip-rule="evenodd" d="M4.38517 14.7567H6.73433C7.11784 14.7567 7.42907 14.4454 7.42907 14.0619C7.42907 13.6784 7.11784 13.3672 6.73433 13.3672H4.38517C4.00216 13.3672 3.69043 13.6784 3.69043 14.0619C3.69043 14.4454 4.00216 14.7567 4.38517 14.7567Z" fill="#60484B"/>
<path fill-rule="evenodd" clip-rule="evenodd" d="M27.9633 16.3661H30.312C30.6955 16.3661 31.0067 16.0548 31.0067 15.6713C31.0067 15.2878 30.6955 14.9766 30.312 14.9766H27.9633C27.5798 14.9766 27.2686 15.2878 27.2686 15.6713C27.2686 16.0547 27.5799 16.3661 27.9633 16.3661Z" fill="#60484B"/>
<path fill-rule="evenodd" clip-rule="evenodd" d="M23.1215 41.3114H25.4707C25.8542 41.3114 26.1654 40.9996 26.1654 40.6166C26.1654 40.2331 25.8542 39.9219 25.4707 39.9219H23.1215C22.7385 39.9219 22.4268 40.2331 22.4268 40.6166C22.4268 40.9996 22.7385 41.3114 23.1215 41.3114Z" fill="#60484B"/>
<path fill-rule="evenodd" clip-rule="evenodd" d="M19.9011 4.11523C18.6469 4.11523 17.6279 5.13416 17.6279 6.38841C17.6279 7.64309 18.6469 8.66159 19.9011 8.66159C21.1558 8.66159 22.1748 7.64309 22.1748 6.38841C22.1747 5.13416 21.1558 4.11523 19.9011 4.11523ZM19.9011 5.50472C20.3893 5.50472 20.7853 5.90075 20.7853 6.38841C20.7853 6.87657 20.3893 7.2721 19.9011 7.2721C19.4134 7.2721 19.0174 6.87657 19.0174 6.38841C19.0173 5.90068 19.4134 5.50472 19.9011 5.50472Z" fill="#60484B"/>
<path fill-rule="evenodd" clip-rule="evenodd" d="M39.7659 15.8359C38.5112 15.8359 37.4927 16.8549 37.4927 18.1091C37.4927 19.3638 38.5112 20.3823 39.7659 20.3823C41.0205 20.3823 42.039 19.3638 42.039 18.1091C42.0391 16.8549 41.0206 15.8359 39.7659 15.8359ZM39.7659 17.2254C40.2536 17.2254 40.6495 17.6215 40.6495 18.1091C40.6495 18.5968 40.2535 18.9928 39.7659 18.9928C39.2781 18.9928 38.8822 18.5968 38.8822 18.1091C38.8822 17.6214 39.2782 17.2254 39.7659 17.2254Z" fill="#60484B"/>
<path fill-rule="evenodd" clip-rule="evenodd" d="M36.6089 34.3457C35.3542 34.3457 34.3357 35.3642 34.3357 36.6189C34.3357 37.8736 35.3542 38.8921 36.6089 38.8921C37.8631 38.8921 38.882 37.8736 38.882 36.6189C38.882 35.3642 37.8631 34.3457 36.6089 34.3457ZM36.6089 35.7352C37.0966 35.7352 37.4926 36.1312 37.4926 36.6189C37.4926 37.1066 37.0965 37.5026 36.6089 37.5026C36.1211 37.5026 35.7252 37.1065 35.7252 36.6189C35.7252 36.1312 36.1211 35.7352 36.6089 35.7352Z" fill="#60484B"/>
<path fill-rule="evenodd" clip-rule="evenodd" d="M11.0966 10.3629C9.70856 6.46999 7.20333 3.69429 3.16548 2.45071C2.79869 2.33816 2.40963 2.54383 2.29708 2.91062C2.18404 3.27699 2.3902 3.66605 2.75657 3.77901C6.34561 4.88366 8.55398 7.3694 9.78781 10.8297C9.91657 11.1909 10.3145 11.3794 10.6757 11.2507C11.0369 11.122 11.2254 10.7241 11.0966 10.3629Z" fill="#60484B"/>
<path fill-rule="evenodd" clip-rule="evenodd" d="M35.6846 13.0309C36.9184 9.57064 39.1273 7.08483 42.7162 5.97976C43.0826 5.86722 43.2887 5.47816 43.1757 5.11179C43.0632 4.745 42.6736 4.53934 42.3073 4.65188C38.2695 5.89546 35.7643 8.67116 34.3762 12.564C34.2474 12.9253 34.4359 13.3232 34.7972 13.4519C35.1584 13.5807 35.5558 13.3922 35.6846 13.0309Z" fill="#60484B"/>
<path fill-rule="evenodd" clip-rule="evenodd" d="M29.7143 9.69652C29.9458 7.87493 29.8421 6.16262 29.3479 4.57856C28.8491 2.98021 27.9538 1.51062 26.5907 0.194763C26.3147 -0.0715819 25.8747 -0.0636855 25.6083 0.211907C25.342 0.487927 25.3499 0.927922 25.6255 1.19427C26.8075 2.33548 27.5888 3.60638 28.0214 4.99267C28.4587 6.39375 28.5411 7.90965 28.336 9.52102C28.2873 9.90126 28.5569 10.2496 28.9371 10.2977C29.3178 10.3464 29.6656 10.0768 29.7143 9.69652Z" fill="#60484B"/>
<path fill-rule="evenodd" clip-rule="evenodd" d="M35.3397 25.2106C38.7999 26.4445 41.2857 28.6528 42.3908 32.2419C42.5034 32.6082 42.8924 32.8143 43.2592 32.7014C43.6256 32.5888 43.8312 32.1998 43.7186 31.833C42.475 27.7951 39.6993 25.2899 35.8065 23.9018C35.4452 23.7731 35.0473 23.9616 34.9186 24.3228C34.7899 24.6841 34.9788 25.0819 35.3397 25.2106Z" fill="#60484B"/>
</g>
</g>
<defs>
<clipPath id="clip0_1704_2">
<rect width="44" height="44" fill="white"/>
</clipPath>
</defs>
</svg>
