<svg width="17" height="19" viewBox="0 0 17 19" fill="none" xmlns="http://www.w3.org/2000/svg">
<path d="M8.5 9.75C6.00391 9.75 4 7.74609 4 5.25C4 2.78906 6.00391 0.75 8.5 0.75C10.9609 0.75 13 2.78906 13 5.25C13 7.74609 10.9609 9.75 8.5 9.75ZM11.6289 10.875C14.2305 10.875 16.375 13.0195 16.375 15.6211V17.0625C16.375 18.0117 15.6016 18.75 14.6875 18.75H2.3125C1.36328 18.75 0.625 18.0117 0.625 17.0625V15.6211C0.625 13.0195 2.73438 10.875 5.33594 10.875H5.93359C6.70703 11.2617 7.58594 11.4375 8.5 11.4375C9.41406 11.4375 10.2578 11.2617 11.0312 10.875H11.6289Z" fill="#B21409"/>
</svg>
