<svg width="47" height="30" viewBox="0 0 47 30" fill="none" xmlns="http://www.w3.org/2000/svg">
<rect x="0.622559" y="0.5" width="45.2281" height="29" rx="3.5" fill="white" stroke="#B2BCCA"/>
<path d="M26.3062 14.6322C26.3062 19.2616 22.271 23.0144 17.2934 23.0144C12.3157 23.0144 8.28052 19.2616 8.28052 14.6322C8.28052 10.0028 12.3157 6.25 17.2934 6.25C22.271 6.25 26.3062 10.0028 26.3062 14.6322Z" fill="#ED0006"/>
<path d="M37.9989 14.6322C37.9989 19.2616 33.9637 23.0144 28.986 23.0144C24.0083 23.0144 19.9731 19.2616 19.9731 14.6322C19.9731 10.0028 24.0083 6.25 28.986 6.25C33.9637 6.25 37.9989 10.0028 37.9989 14.6322Z" fill="#2F80ED"/>
<path fill-rule="evenodd" clip-rule="evenodd" d="M23.1398 21.0115C21.2019 19.474 19.9731 17.1863 19.9731 14.6317C19.9731 12.0771 21.2019 9.7894 23.1398 8.25195C25.0776 9.7894 26.3064 12.0771 26.3064 14.6317C26.3064 17.1863 25.0776 19.474 23.1398 21.0115Z" fill="#6C6BBD"/>
</svg>
