<svg width="24" height="24" viewBox="0 0 24 24" fill="none" xmlns="http://www.w3.org/2000/svg">
<g id="basil:edit-outline">
<path id="Vector" fill-rule="evenodd" clip-rule="evenodd" d="M21.455 5.41534C21.55 5.55955 21.5924 5.73212 21.5749 5.90393C21.5574 6.07573 21.4811 6.23624 21.359 6.35834L12.166 15.5503C12.072 15.6443 11.9546 15.7116 11.826 15.7453L7.99702 16.7453C7.87045 16.7784 7.73744 16.7777 7.61121 16.7434C7.48498 16.7091 7.3699 16.6424 7.27741 16.5499C7.18492 16.4575 7.11822 16.3424 7.08395 16.2161C7.04967 16.0899 7.049 15.9569 7.08202 15.8303L8.08202 12.0023C8.11121 11.8874 8.16628 11.7807 8.24302 11.6903L17.47 2.46934C17.6106 2.32889 17.8013 2.25 18 2.25C18.1988 2.25 18.3894 2.32889 18.53 2.46934L21.359 5.29734C21.3949 5.33335 21.4271 5.37288 21.455 5.41534ZM19.768 5.82734L18 4.06034L9.48202 12.5783L8.85702 14.9713L11.25 14.3463L19.768 5.82734Z" fill="#B2BCCA"/>
<path id="Vector_2" d="M19.641 17.1609C19.9143 14.8248 20.0016 12.4707 19.902 10.1209C19.8998 10.0655 19.9091 10.0103 19.9292 9.95867C19.9494 9.90705 19.9799 9.86014 20.019 9.82086L21.003 8.83686C21.0299 8.80982 21.064 8.79112 21.1013 8.78301C21.1385 8.77489 21.1773 8.77771 21.213 8.79113C21.2487 8.80454 21.2798 8.82797 21.3025 8.85862C21.3252 8.88926 21.3386 8.92581 21.341 8.96386C21.5262 11.7551 21.4559 14.5574 21.131 17.3359C20.895 19.3579 19.271 20.9429 17.258 21.1679C13.7633 21.5549 10.2366 21.5549 6.74199 21.1679C4.72999 20.9429 3.10499 19.3579 2.86899 17.3359C2.45439 13.7913 2.45439 10.2104 2.86899 6.66586C3.10499 4.64386 4.72899 3.05886 6.74199 2.83386C9.39436 2.53975 12.0667 2.4685 14.731 2.62086C14.7691 2.6236 14.8057 2.63721 14.8363 2.66007C14.8669 2.68294 14.8904 2.71411 14.9038 2.74988C14.9173 2.78566 14.9202 2.82455 14.9123 2.86194C14.9044 2.89933 14.8859 2.93366 14.859 2.96086L13.866 3.95286C13.8271 3.99161 13.7807 4.02198 13.7296 4.04211C13.6785 4.06223 13.6239 4.07167 13.569 4.06986C11.3458 3.99429 9.11995 4.07951 6.90899 4.32486C6.26294 4.39637 5.65985 4.68359 5.19715 5.14011C4.73445 5.59664 4.43917 6.19582 4.35899 6.84086C3.95804 10.2692 3.95804 13.7325 4.35899 17.1609C4.43917 17.8059 4.73445 18.4051 5.19715 18.8616C5.65985 19.3181 6.26294 19.6054 6.90899 19.6769C10.264 20.0519 13.736 20.0519 17.092 19.6769C17.7381 19.6054 18.3411 19.3181 18.8038 18.8616C19.2665 18.4051 19.5608 17.8059 19.641 17.1609Z" fill="#B2BCCA"/>
</g>
</svg>
