<svg width="31" height="28" viewBox="0 0 31 28" fill="none" xmlns="http://www.w3.org/2000/svg">
<path d="M20.8595 13.25H19.7038V9.75C19.7038 8.64531 18.73 7.75 17.5284 7.75H13.3135C12.1119 7.75 11.138 8.64531 11.138 9.75V13.25H9.98234C9.68151 13.25 9.43848 13.4734 9.43848 13.75V19.75C9.43848 20.0266 9.68151 20.25 9.98234 20.25H20.8595C21.1604 20.25 21.4034 20.0266 21.4034 19.75V13.75C21.4034 13.4734 21.1604 13.25 20.8595 13.25ZM15.8968 16.9531V17.7812C15.8968 17.85 15.8356 17.9062 15.7608 17.9062H15.081C15.0062 17.9062 14.9451 17.85 14.9451 17.7812V16.9531C14.8048 16.8605 14.7 16.7294 14.646 16.5786C14.5919 16.4278 14.5913 16.2651 14.6442 16.114C14.6971 15.9628 14.8008 15.831 14.9404 15.7375C15.08 15.644 15.2482 15.5936 15.4209 15.5936C15.5936 15.5936 15.7619 15.644 15.9015 15.7375C16.0411 15.831 16.1448 15.9628 16.1977 16.114C16.2506 16.2651 16.2499 16.4278 16.1959 16.5786C16.1418 16.7294 16.0371 16.8605 15.8968 16.9531ZM18.4801 13.25H12.3617V9.75C12.3617 9.26719 12.7883 8.875 13.3135 8.875H17.5284C18.0536 8.875 18.4801 9.26719 18.4801 9.75V13.25Z" fill="#F27F0E"/>
<path d="M30.149 14C30.149 21.4171 23.5954 27.5 15.4209 27.5C7.24644 27.5 0.692871 21.4171 0.692871 14C0.692871 6.5829 7.24644 0.5 15.4209 0.5C23.5954 0.5 30.149 6.5829 30.149 14Z" stroke="#F27F0E"/>
</svg>
