<svg width="16" height="16" viewBox="0 0 16 16" fill="none" xmlns="http://www.w3.org/2000/svg">
<g id="Icons set ">
<path id="Vector" d="M6.20382 14.681H8.70723C8.70723 14.681 8.15587 16.0394 10.1266 11.2816C15.4397 7.88465 13.8402 4.87954 13.5463 0.666016C8.86491 1.27578 7.39657 3.97241 7.48363 8.20786C8.63974 7.77332 9.70189 7.12018 10.2579 6.64305C9.80116 5.771 9.54279 5.59625 8.7113 4.98226C9.63408 5.15858 10.3881 5.87169 10.7266 6.12944C10.9855 5.81219 11.2528 4.91743 11.2528 4.91743C11.2528 4.91743 10.4117 3.90038 9.53402 3.33478C10.2885 3.31818 11.114 4.19211 11.4815 4.38002C11.4999 4.32192 11.6863 3.78576 11.8692 3.34793C11.6469 2.94957 11.4496 2.7532 10.9618 2.32477C11.5736 2.56279 11.8227 2.76135 12.0406 2.93547C12.1494 2.70685 12.7491 1.65613 13.2335 1.20609C12.0924 3.9995 14.2222 7.77097 8.33188 10.0681C7.78382 11.6405 7.53562 12.4637 7.53562 12.4637C7.53562 12.4637 7.32751 12.4646 7.26065 12.4608L3.88379 3.40963H1.33325L6.20382 14.681Z" fill="#4D3B3D"/>
</g>
</svg>
