<svg width="16" height="16" viewBox="0 0 16 16" fill="none" xmlns="http://www.w3.org/2000/svg">
<path d="M10 0.5C10 1.43229 10.1719 2.29167 10.5156 3.07812C10.8594 3.86458 11.3542 4.58854 12 5.25C12.6458 5.91146 13.1406 6.63542 13.4844 7.42188C13.8281 8.20833 14 9.06771 14 10C14 10.5521 13.9297 11.0833 13.7891 11.5938C13.6484 12.1042 13.4453 12.5807 13.1797 13.0234C12.9141 13.4661 12.6016 13.8724 12.2422 14.2422C11.8828 14.612 11.4792 14.9245 11.0312 15.1797C10.5833 15.4349 10.1042 15.6354 9.59375 15.7812C9.08333 15.9271 8.55208 16 8 16C7.44792 16 6.91667 15.9297 6.40625 15.7891C5.89583 15.6484 5.41927 15.4453 4.97656 15.1797C4.53385 14.9141 4.1276 14.6016 3.75781 14.2422C3.38802 13.8828 3.07552 13.4792 2.82031 13.0312C2.5651 12.5833 2.36458 12.1042 2.21875 11.5938C2.07292 11.0833 2 10.5521 2 10C2 9.5625 2.04688 9.13281 2.14062 8.71094C2.23438 8.28906 2.36979 7.88542 2.54688 7.5C2.72396 7.11458 2.94271 6.7474 3.20312 6.39844C3.46354 6.04948 3.75781 5.73438 4.08594 5.45312C4.1224 5.65104 4.17188 5.85417 4.23438 6.0625C4.29688 6.27083 4.36979 6.47917 4.45312 6.6875C4.53646 6.89583 4.63542 7.09375 4.75 7.28125C4.86458 7.46875 4.98438 7.64323 5.10938 7.80469C5.21354 7.9349 5.34896 8 5.51562 8C5.65625 8 5.77344 7.95052 5.86719 7.85156C5.96094 7.7526 6.01042 7.63281 6.01562 7.49219C6.01562 7.4349 6.00781 7.38281 5.99219 7.33594C5.97656 7.28906 5.95052 7.24219 5.91406 7.19531C5.76823 6.98177 5.64062 6.77083 5.53125 6.5625C5.42188 6.35417 5.32552 6.14062 5.24219 5.92188C5.15885 5.70312 5.09896 5.47656 5.0625 5.24219C5.02604 5.00781 5.00521 4.76042 5 4.5C5 3.88021 5.11719 3.29688 5.35156 2.75C5.58594 2.20312 5.90885 1.72656 6.32031 1.32031C6.73177 0.914062 7.20833 0.59375 7.75 0.359375C8.29167 0.125 8.875 0.00520833 9.5 0H10V0.5ZM8 15C8.69271 15 9.34115 14.8698 9.94531 14.6094C10.5495 14.349 11.0807 13.9922 11.5391 13.5391C11.9974 13.0859 12.3542 12.5573 12.6094 11.9531C12.8646 11.349 12.9948 10.6979 13 10C13 9.21354 12.8542 8.48177 12.5625 7.80469C12.2708 7.1276 11.849 6.51302 11.2969 5.96094C10.6198 5.27865 10.0885 4.52604 9.70312 3.70312C9.31771 2.88021 9.08854 1.98958 9.01562 1.03125C8.58333 1.08854 8.1849 1.21875 7.82031 1.42188C7.45573 1.625 7.13542 1.88281 6.85938 2.19531C6.58333 2.50781 6.3724 2.85938 6.22656 3.25C6.08073 3.64062 6.00521 4.05729 6 4.5C6 4.90625 6.0599 5.27344 6.17969 5.60156C6.29948 5.92969 6.47656 6.25781 6.71094 6.58594C6.8099 6.72135 6.88542 6.86198 6.9375 7.00781C6.98958 7.15365 7.01823 7.3151 7.02344 7.49219C7.02344 7.70052 6.98438 7.89583 6.90625 8.07812C6.82812 8.26042 6.71875 8.41927 6.57812 8.55469C6.4375 8.6901 6.27865 8.79948 6.10156 8.88281C5.92448 8.96615 5.72917 9.00521 5.51562 9C5.27604 9 5.0651 8.95573 4.88281 8.86719C4.70052 8.77865 4.53906 8.65885 4.39844 8.50781C4.25781 8.35677 4.13281 8.1875 4.02344 8C3.91406 7.8125 3.8099 7.625 3.71094 7.4375C3.47135 7.81771 3.29427 8.22656 3.17969 8.66406C3.0651 9.10156 3.00521 9.54688 3 10C3 10.6927 3.13021 11.3411 3.39062 11.9453C3.65104 12.5495 4.00781 13.0807 4.46094 13.5391C4.91406 13.9974 5.44271 14.3542 6.04688 14.6094C6.65104 14.8646 7.30208 14.9948 8 15Z" fill="#60484B"/>
</svg>
