<svg width="16" height="16" viewBox="0 0 16 16" fill="none" xmlns="http://www.w3.org/2000/svg">
<g id="mdi:clock-time-nine-outline">
<path id="Vector" d="M8.00016 13.334C10.9335 13.334 13.3335 10.934 13.3335 8.00065C13.3335 5.06732 10.9335 2.66732 8.00016 2.66732C5.06683 2.66732 2.66683 5.06732 2.66683 8.00065C2.66683 10.934 5.06683 13.334 8.00016 13.334ZM8.00016 1.33398C11.6668 1.33398 14.6668 4.33398 14.6668 8.00065C14.6668 11.6673 11.6668 14.6673 8.00016 14.6673C4.3335 14.6673 1.3335 11.6673 1.3335 8.00065C1.3335 4.33398 4.3335 1.33398 8.00016 1.33398ZM8.3335 4.66732V8.66732H4.66683V7.66732H7.3335V4.66732H8.3335Z" fill="#60484B"/>
</g>
</svg>
