<svg width="44" height="44" viewBox="0 0 44 44" fill="none" xmlns="http://www.w3.org/2000/svg">
<g id="icons ">
<g id="g1749">
<g id="g1751">
<g id="Clip path group">
<mask id="mask0_176_2627" style="mask-type:luminance" maskUnits="userSpaceOnUse" x="0" y="0" width="44" height="44">
<g id="clipPath1757">
<path id="path1755" d="M0 3.8147e-06H44V44H0V3.8147e-06Z" fill="white"/>
</g>
</mask>
<g mask="url(#mask0_176_2627)">
<g id="g1753">
<g id="g1759">
<path id="path1761" d="M34.1969 9.90039H1.50854C1.034 9.90039 0.64917 9.51565 0.64917 9.04102V4.31308C0.64917 3.83853 1.034 3.4537 1.50854 3.4537H42.5007C42.9754 3.4537 43.3601 3.83853 43.3601 4.31308V9.04102C43.3601 9.51565 42.9754 9.90039 42.5007 9.90039H37.2047" stroke="#60484B" stroke-width="1.28906" stroke-miterlimit="10" stroke-linecap="round" stroke-linejoin="round"/>
</g>
<g id="g1763">
<path id="path1765" d="M40.782 9.9001V37.9688C40.782 39.3926 39.6277 40.5469 38.2039 40.5469H5.80542C4.38161 40.5469 3.22729 39.3926 3.22729 37.9688V9.9001" stroke="#60484B" stroke-width="1.28906" stroke-miterlimit="10" stroke-linecap="round" stroke-linejoin="round"/>
</g>
</g>
</g>
</g>
</g>
</g>
</g>
</svg>
