<svg width="44" height="30" viewBox="0 0 44 30" fill="none" xmlns="http://www.w3.org/2000/svg">
<rect x="1.3418" y="0.5" width="41.5" height="29" rx="3.5" fill="white" stroke="#B2BCCA"/>
<path fill-rule="evenodd" clip-rule="evenodd" d="M19.1096 23.0601L19.3855 21.2487L18.7709 21.2339H15.8359L17.8756 7.86688C17.882 7.8264 17.9025 7.78883 17.9325 7.7621C17.9626 7.73537 18.0011 7.7207 18.0413 7.7207H22.99C24.633 7.7207 25.7668 8.074 26.3586 8.77143C26.6362 9.0986 26.8129 9.44059 26.8985 9.8168C26.9882 10.2116 26.9897 10.6833 26.9022 11.2587L26.8958 11.3005V11.6693L27.1734 11.8318C27.407 11.9599 27.5928 12.1066 27.7352 12.2744C27.9726 12.5543 28.1261 12.9099 28.191 13.3313C28.2581 13.7648 28.2359 14.2807 28.1261 14.8648C27.9995 15.5366 27.7948 16.1217 27.5183 16.6004C27.2641 17.0416 26.9402 17.4075 26.5555 17.691C26.1883 17.9605 25.752 18.165 25.2587 18.2959C24.7806 18.4245 24.2356 18.4894 23.6379 18.4894H23.2527C22.9774 18.4894 22.7099 18.5919 22.5 18.7757C22.2894 18.9632 22.1502 19.2195 22.1074 19.4998L22.0783 19.6629L21.5908 22.8557L21.5688 22.9729C21.5629 23.01 21.5528 23.0285 21.538 23.041C21.5249 23.0525 21.506 23.0601 21.4875 23.0601H19.1096Z" fill="#28356A"/>
<path fill-rule="evenodd" clip-rule="evenodd" d="M27.4364 11.3438C27.4218 11.4414 27.4048 11.5411 27.3859 11.6436C26.7333 15.1069 24.5004 16.3033 21.6489 16.3033H20.1969C19.8482 16.3033 19.5542 16.565 19.5 16.9206L18.5461 23.1746C18.5108 23.4082 18.6848 23.6185 18.9127 23.6185H21.4879C21.7928 23.6185 22.0519 23.3895 22.0999 23.0787L22.1252 22.9435L22.61 19.7633L22.6412 19.5888C22.6887 19.2769 22.9483 19.0478 23.2532 19.0478H23.6383C26.1333 19.0478 28.0865 18.0009 28.6574 14.9711C28.8957 13.7055 28.7723 12.6486 28.1413 11.9054C27.9504 11.6813 27.7135 11.4953 27.4364 11.3438Z" fill="#2F80ED"/>
<path fill-rule="evenodd" clip-rule="evenodd" d="M26.7533 11.0624C26.6536 11.0323 26.5507 11.0051 26.4452 10.9805C26.3391 10.9566 26.2305 10.9353 26.1186 10.9167C25.7271 10.8513 25.2981 10.8203 24.8387 10.8203H20.9599C20.8643 10.8203 20.7735 10.8426 20.6924 10.8829C20.5134 10.9718 20.3806 11.1469 20.3484 11.3612L19.5232 16.7631L19.4995 16.9206C19.5537 16.565 19.8477 16.3033 20.1964 16.3033H21.6484C24.5 16.3033 26.7328 15.1063 27.3854 11.6436C27.4049 11.5411 27.4213 11.4414 27.4359 11.3438C27.2708 11.2532 27.092 11.1757 26.8995 11.1098C26.8519 11.0934 26.8028 11.0777 26.7533 11.0624Z" fill="#28356A"/>
<path fill-rule="evenodd" clip-rule="evenodd" d="M20.3486 11.3604C20.3808 11.1461 20.5137 10.9711 20.6926 10.8828C20.7743 10.8423 20.8645 10.82 20.9601 10.82H24.8389C25.2983 10.82 25.7274 10.8512 26.1188 10.9165C26.2307 10.935 26.3393 10.9564 26.4454 10.9804C26.5509 11.0048 26.6538 11.0322 26.7535 11.0621C26.803 11.0774 26.8521 11.0933 26.9001 11.109C27.0927 11.175 27.2717 11.253 27.4367 11.343C27.6309 10.0632 27.4351 9.19176 26.7657 8.40269C26.0275 7.53389 24.6954 7.16211 22.9908 7.16211H18.0419C17.6937 7.16211 17.3967 7.42376 17.3429 7.77996L15.2816 21.2844C15.241 21.5516 15.4404 21.7926 15.701 21.7926H18.7563L20.3486 11.3604Z" fill="#28356A"/>
</svg>
