<svg width="197" height="63" viewBox="0 0 197 63" fill="none" xmlns="http://www.w3.org/2000/svg">
<path d="M27.2829 12.5327C27.272 12.8252 27.2612 13.1068 27.2504 13.4101C28.4744 13.4101 29.2868 13.5292 29.655 13.7459C30.0775 14.0058 30.2941 14.4283 30.2941 15.0024C30.2941 15.7064 30.0775 16.2047 29.6659 16.508C29.2868 16.7896 28.431 16.9304 27.1204 16.9521C27.0554 18.4794 26.9904 20.0175 26.9146 21.5664C26.7521 24.621 26.568 27.6648 26.3513 30.6977C26.2322 32.4416 25.7556 33.6656 24.9107 34.3588C24.0658 35.0521 23.0368 35.3987 21.802 35.3987C20.5888 35.3987 19.5923 35.0629 18.8341 34.3913C18.0758 33.7089 17.4476 32.7557 16.9493 31.4992C16.0178 29.2029 15.1079 26.8415 14.2305 24.426C13.3532 22.0106 12.4866 19.6167 11.6309 17.2554C10.7752 14.894 9.90864 12.6302 9.05293 10.453C8.93378 10.1606 8.79296 9.94391 8.64132 9.81393C8.47884 9.67312 8.28387 9.60813 8.0564 9.60813C7.69895 9.60813 7.42816 9.75977 7.21152 10.0414C7.00572 10.3339 6.95156 10.7563 7.04905 11.2979C7.41733 13.5834 7.83977 15.9014 8.2947 18.2736C8.76047 20.6349 9.23707 23.0287 9.71367 25.4226C10.1903 27.8164 10.6127 30.2102 11.0027 32.5932C11.3493 34.8463 11.0352 36.5793 10.0603 37.8033C9.08542 39.0273 7.54731 39.6447 5.45677 39.6447C3.5937 39.6447 2.23972 39.179 1.39484 38.2583C0.549957 37.3376 0.105854 36.1136 0.0516946 34.5971C0.030031 34.283 0.0191998 33.9364 0.008368 33.5356C-0.00246381 33.1457 -0.00246381 32.7341 0.008368 32.3224C0.0191998 31.9108 0.030031 31.5101 0.0516946 31.1526C2.74882 31.3692 4.56856 31.3259 5.50009 31.0118C6.43163 30.6977 6.8974 30.1994 6.8974 29.4953C6.8974 28.5963 6.44246 28.0439 5.52176 27.8272C4.60106 27.6214 2.83547 27.6106 0.203339 27.7947C0.246667 27.2098 0.26833 26.6357 0.300825 26.0616C0.322489 25.4876 0.365816 24.9135 0.409143 24.3502C1.57898 24.4694 2.53218 24.5019 3.27957 24.4694C4.0378 24.4261 4.59022 24.2636 4.9585 23.9928C5.32679 23.7111 5.51093 23.2887 5.51093 22.7038C5.51093 21.9672 5.14265 21.4798 4.40608 21.2198C3.66952 20.9599 2.39137 20.8082 0.560791 20.7541C0.647446 18.9018 0.766594 16.9304 0.91824 14.8291C1.08072 12.7277 1.25403 10.7671 1.449 8.95822C1.69813 6.7052 2.33721 5.09126 3.37706 4.09474C4.40608 3.09821 5.74923 2.59995 7.40649 2.59995C8.90128 2.59995 10.0711 2.98989 10.916 3.78061C11.7609 4.5605 12.4866 5.81699 13.104 7.55008C13.6565 9.06653 14.2305 10.7346 14.8263 12.5544C15.422 14.3741 16.0394 16.2697 16.6569 18.2411C17.2851 20.2016 17.9025 22.1514 18.5308 24.0794C19.159 25.9967 19.7764 27.8272 20.3938 29.5387C20.6105 30.1561 20.9246 30.5352 21.347 30.6652C21.7586 30.7952 22.1378 30.7193 22.4735 30.4269C22.8093 30.1344 22.961 29.6578 22.9501 28.9862C22.9177 26.6032 22.8635 23.9819 22.7985 21.1007C22.766 19.725 22.7335 18.3386 22.7118 16.9304C21.1304 16.9088 20.0689 16.8005 19.484 16.5838C18.8666 16.3563 18.5524 15.8797 18.5524 15.1865C18.5524 14.6341 18.8232 14.2117 19.3648 13.9192C19.8956 13.6267 20.9896 13.4643 22.6577 13.4426C22.6469 13.0635 22.6469 12.6844 22.636 12.3052C22.6252 11.612 22.6144 10.9188 22.6035 10.2472C21.4012 10.2364 20.4697 10.1606 19.8198 10.0089C19.1373 9.84643 18.6716 9.62979 18.4224 9.3265C18.1733 9.02321 18.0433 8.66576 18.0433 8.25415C18.0433 7.85337 18.1733 7.51759 18.4333 7.26846C18.6932 7.00849 19.1807 6.82436 19.8847 6.71604C20.5238 6.61855 21.4337 6.59689 22.5927 6.64021C22.5927 5.64369 22.5927 4.66882 22.6035 3.70479C22.6035 2.6541 22.8093 1.86338 23.2101 1.34346C23.6217 0.823528 24.25 0.552734 25.0948 0.552734C25.8964 0.552734 26.4813 0.834364 26.8713 1.40845C27.2504 1.9717 27.4453 2.82742 27.4453 3.95393C27.4345 4.91796 27.4237 5.89282 27.4128 6.88934C28.4419 6.95433 29.2109 7.04099 29.7309 7.14931C30.3483 7.29012 30.7491 7.46343 30.9224 7.70173C31.0957 7.94003 31.1823 8.23249 31.1823 8.60078C31.1823 8.96906 31.0848 9.27234 30.9007 9.51064C30.7057 9.74894 30.2941 9.93309 29.6442 10.0631C29.1134 10.1606 28.3444 10.2255 27.337 10.2472C27.3262 11.0054 27.3045 11.7637 27.2829 12.5327Z" fill="#57080D"/>
<path d="M58.4569 38.9955C58.1861 37.3816 57.9153 35.7568 57.612 34.1104C57.3087 32.4748 57.0162 30.8283 56.7129 29.1711C56.4096 27.5246 56.1063 25.8674 55.7922 24.1993C55.4781 22.5312 55.1531 20.8631 54.8174 19.195C54.0483 19.4116 53.3009 19.5741 52.5643 19.6824C51.8278 19.7907 51.232 19.7474 50.7446 19.5416C50.268 19.3466 50.0189 18.8809 50.0189 18.1443C50.0189 17.5161 50.333 17.0394 50.9612 16.7145C51.5786 16.4004 52.6727 16.1404 54.2216 15.9346C54.1566 15.4363 54.07 14.9381 53.9725 14.4398C53.875 13.9415 53.7775 13.4433 53.68 12.9342C52.5752 13.14 51.6003 13.2808 50.7446 13.3891C49.8889 13.4866 49.2065 13.4325 48.719 13.2267C48.2316 13.0209 47.9825 12.5551 47.9825 11.8402C47.9825 11.2553 48.3291 10.8003 49.0332 10.4754C49.7372 10.1504 51.0912 9.89046 53.0843 9.68466C53.0626 9.48968 53.0301 9.28388 52.9976 9.08891C52.9543 8.89394 52.911 8.68813 52.8785 8.49316C52.6077 7.0092 51.9578 5.90435 50.9287 5.16778C49.8997 4.43122 48.6649 4.06294 47.2351 4.04128C45.8703 4.00878 44.6571 4.33373 43.5848 5.00531C42.5124 5.68771 41.7217 6.7059 41.1801 8.09237C41.1584 8.1682 41.0718 8.4065 40.9201 8.82894C40.7577 9.25138 40.5519 9.81463 40.2919 10.5187C40.2161 10.7353 40.1403 10.952 40.0536 11.1794C40.0103 11.2661 39.9778 11.3636 39.9453 11.4502C39.1221 11.1144 38.3313 10.8545 37.5839 10.6487C36.6632 10.4104 35.9158 10.3779 35.3418 10.5512C34.7785 10.7245 34.4969 11.2011 34.4969 11.9918C34.4969 12.3709 34.6485 12.7392 34.941 13.0642C35.2334 13.3891 35.7317 13.7466 36.4033 14.104C36.9774 14.4073 37.7031 14.7539 38.6021 15.1331C38.4722 15.4797 38.3422 15.8263 38.2122 16.1837C38.1364 16.3895 38.0714 16.5845 37.9956 16.7903C37.9197 16.9961 37.8439 17.2019 37.7573 17.3969C37.7248 17.4836 37.7031 17.5594 37.6706 17.6352C36.7716 17.3211 35.9267 17.0828 35.1468 16.8878C34.2044 16.6603 33.457 16.6387 32.8829 16.812C32.3197 16.9853 32.0272 17.4727 32.0272 18.2743C32.0272 18.6642 32.2005 19 32.5255 19.2925C32.8613 19.5849 33.4137 19.8666 34.1828 20.159C34.7893 20.3865 35.5584 20.6248 36.4899 20.8956C36.0133 22.1954 35.5476 23.4952 35.071 24.795C34.3344 26.8206 33.6845 28.6078 33.1212 30.1676C32.558 31.7274 32.1572 32.8214 31.9189 33.4713C31.5181 34.6195 31.5506 35.6052 32.0164 36.4067C32.4822 37.2191 33.2512 37.6199 34.3127 37.6199C34.8977 37.6199 35.4501 37.4141 35.9917 37.0133C36.5224 36.6017 36.9124 35.941 37.1615 35.0311C37.389 34.1429 37.6164 33.233 37.8547 32.3231C39.9994 32.5831 42.3174 32.8322 44.8196 33.0922C47.2459 33.3522 49.7372 33.5905 52.2827 33.8179C53.0084 35.8976 53.7233 37.934 54.4491 39.9379C54.6982 40.5986 55.034 41.0969 55.4781 41.411C55.9114 41.7251 56.3338 41.8876 56.7454 41.8876C57.2978 41.8876 57.7636 41.6277 58.1427 41.1186C58.5327 40.6203 58.641 39.9162 58.4569 38.9955ZM44.8738 29.3877C42.7399 29.1819 40.6927 29.0086 38.7321 28.857C38.9488 27.9796 39.1654 27.1022 39.382 26.2032C39.3929 26.1707 39.4037 26.1382 39.4037 26.1165C39.4795 26.1273 39.5553 26.1382 39.6203 26.1382C40.5085 26.2357 41.4076 26.3006 42.3066 26.3548C43.7364 26.4198 44.7004 26.3223 45.2095 26.0732C45.7078 25.8132 45.9569 25.3258 45.9569 24.6109C45.9569 23.8635 45.6645 23.3761 45.0904 23.1378C44.5163 22.8995 43.6498 22.7586 42.5016 22.7153C41.7434 22.6828 40.996 22.6612 40.2594 22.6612C40.7252 20.8089 41.1909 18.9784 41.6567 17.1586C41.9383 16.0646 42.2633 15.3064 42.6424 14.9056C43.0107 14.5048 43.4873 14.3098 44.0505 14.3098C44.6463 14.3098 45.1229 14.5373 45.4695 14.9706C45.8053 15.4038 46.1627 16.1188 46.5094 17.1044C47.7875 20.6573 49.0982 24.4051 50.4305 28.3804C50.6146 28.922 50.7879 29.4527 50.9721 29.9943C48.9465 29.7777 46.921 29.5719 44.8738 29.3877Z" fill="#B0160C"/>
<path d="M81.9402 34.3502C81.9402 35.6175 81.691 36.6465 81.1819 37.4372C80.6728 38.2279 79.9471 38.7912 79.0156 39.127C78.084 39.4628 76.99 39.5711 75.7444 39.4519C75.6794 39.4519 75.6144 39.4411 75.5602 39.4303C75.4952 39.4086 75.4302 39.3978 75.3436 39.3978C75.7119 37.5022 75.9285 36.0616 76.0043 35.0759C76.0801 34.0902 75.9827 33.4295 75.7335 33.0828C75.4736 32.7362 75.0295 32.5629 74.3904 32.5629C74.0113 32.5629 73.708 32.7254 73.4913 33.0503C73.2747 33.3753 73.1014 34.0144 72.9714 34.9459C72.8414 35.8883 72.7115 37.2747 72.5923 39.1053C72.1482 39.0512 71.6933 38.997 71.2383 38.9428C70.7942 38.8887 70.3285 38.8237 69.841 38.7587C69.841 37.3072 69.7652 36.2241 69.6136 35.4983C69.4619 34.7726 69.2561 34.296 68.9853 34.0577C68.7253 33.8194 68.4112 33.7111 68.0429 33.7111C67.6747 33.7111 67.3605 33.8302 67.1114 34.0577C66.8623 34.2852 66.6998 34.7401 66.624 35.4008C66.5482 36.0507 66.5806 37.0256 66.7431 38.3146C66.3424 38.2604 65.9416 38.1955 65.5408 38.1196C65.14 38.0438 64.7392 37.9788 64.3385 37.903C63.0711 37.6755 62.0529 37.2098 61.2622 36.5273C60.4823 35.8449 60.0924 34.8159 60.0924 33.4511C60.0924 31.9455 60.504 30.8298 61.3272 30.0824C62.1504 29.3459 63.1686 28.9667 64.3818 28.9451C64.8367 28.9451 65.2267 28.9342 65.5516 28.9342C65.8874 28.9234 66.2124 28.9126 66.5265 28.8909C66.9598 28.8584 67.2522 28.6959 67.4147 28.4035C67.5772 28.111 67.6638 27.6561 67.6747 27.0387C67.6963 26.7895 67.7072 26.5188 67.718 26.2155C67.7288 25.9122 67.7397 25.598 67.7397 25.2623C67.7613 25.0456 67.7613 24.829 67.7613 24.6015V23.9408C67.783 23.735 67.7938 23.5292 67.7938 23.3342C66.754 23.2692 65.7141 23.1826 64.6959 23.0959C63.851 23.0092 63.1578 22.8468 62.6379 22.5868C62.1179 22.3268 61.8471 21.8502 61.8471 21.1462C61.8471 20.2688 62.1613 19.7272 62.7895 19.5431C63.4178 19.3589 64.2301 19.2939 65.1942 19.3481C66.0282 19.3806 66.8839 19.4348 67.7938 19.4889V16.4235C67.328 16.4885 66.8623 16.5535 66.3857 16.6076C65.5733 16.716 64.8801 16.6618 64.3276 16.456C63.7752 16.2502 63.4936 15.7736 63.4936 15.0045C63.4936 14.4629 63.7102 14.0405 64.1435 13.7481C64.5768 13.4556 65.14 13.2281 65.8441 13.0548C66.4832 12.8923 67.1331 12.7407 67.783 12.5999V12.4699C67.7721 11.1051 67.7613 10.1302 67.7397 9.5128C67.718 8.98204 67.6097 8.61377 67.4039 8.40796C67.1981 8.21299 66.8406 8.10467 66.3423 8.10467C65.9307 8.10467 65.4325 8.13717 64.8692 8.1805C64.306 8.23466 63.7319 8.25632 63.147 8.25632C62.1288 8.25632 61.3272 8.03968 60.7315 7.61724C60.1466 7.1948 59.8433 6.52323 59.8433 5.60252C59.8866 4.67099 60.179 4.01025 60.7315 3.64197C61.2839 3.27368 62.0746 3.05705 63.0928 3.01372C65.3783 2.9054 67.653 2.85125 69.9277 2.85125C72.2024 2.84041 74.3687 2.88374 76.4376 2.97039C77.6399 3.02455 78.4956 3.16537 79.0156 3.4145C79.5247 3.66363 79.7955 4.1294 79.7955 4.8118C79.7955 5.46171 79.5572 5.92748 79.0806 6.20911C78.604 6.49073 77.9432 6.70737 77.0983 6.85902C76.2535 7.02149 75.4627 7.14064 74.7478 7.21646C74.0329 7.29229 73.3289 7.4006 72.6465 7.55225C72.1915 7.64973 71.8666 7.80138 71.6608 7.98552C71.455 8.18049 71.3466 8.51628 71.3466 8.99288C71.3791 9.94608 71.4008 10.8993 71.4441 11.8633C71.9424 11.7658 72.4515 11.6792 72.9498 11.5925C74.1954 11.3867 75.1486 11.3867 75.8094 11.56C76.4593 11.7442 76.795 12.2857 76.795 13.1848C76.795 13.8564 76.5459 14.333 76.0368 14.6471C75.5277 14.9504 74.802 15.1995 73.8488 15.3837C73.0906 15.5353 72.3323 15.6761 71.5849 15.8061C71.6174 16.5102 71.6391 17.2142 71.6716 17.9183C71.7041 18.5465 71.7366 19.1639 71.7691 19.7922C73.0906 19.9113 74.2604 20.0305 75.2569 20.128C76.2426 20.2363 76.9684 20.3988 77.445 20.6371C77.9216 20.8754 78.1599 21.3303 78.1599 21.9694C78.1599 22.641 77.8999 23.0634 77.3908 23.2692C76.8709 23.4642 76.1018 23.5725 75.062 23.5725C74.0329 23.5725 73.0147 23.5508 71.9966 23.5183C72.0615 24.634 72.1374 25.7497 72.2132 26.8654C72.2674 27.6128 72.4407 28.1652 72.7548 28.5226C73.0581 28.8801 73.5672 29.0751 74.2712 29.1076C74.6178 29.1292 74.9753 29.1401 75.3436 29.1509C75.7119 29.1617 76.0693 29.1834 76.4159 29.2159C78.2465 29.3134 79.633 29.8116 80.5862 30.7215C81.5177 31.6422 81.9727 32.8445 81.9402 34.3502Z" fill="#FB8106"/>
<path d="M112.15 33.192C112.15 35.3584 111.641 37.0915 110.612 38.4021C109.583 39.7128 108.034 40.3627 105.954 40.3627C105.088 40.3627 104.243 40.1894 103.42 39.8536C102.596 39.507 101.762 39.0304 100.928 38.4021C100.094 37.7847 99.2601 37.0481 98.4044 36.2033C97.5487 35.3584 96.6821 34.4268 95.7939 33.3978C94.8949 32.3688 93.9633 31.2965 92.9776 30.1916C92.566 29.715 92.1761 29.5309 91.8295 29.6392C91.4828 29.7583 91.3312 30.0616 91.3854 30.5382C91.4828 31.4048 91.6128 32.2605 91.7753 33.1054C91.9378 33.9611 92.0678 34.7951 92.1869 35.6292C92.3386 36.8748 92.2194 37.7955 91.8403 38.3913C91.4612 38.987 90.6488 39.2795 89.3923 39.2795C88.3308 39.2795 87.5942 38.9329 87.1934 38.2396C86.7927 37.5464 86.5327 36.5282 86.3919 35.1742C86.1861 32.7263 86.0019 29.7583 85.8395 26.2922C85.6662 22.8151 85.5903 19.0348 85.5903 14.9404C85.5903 13.7923 85.677 12.7199 85.8395 11.7342C86.0019 10.7485 86.2511 9.83864 86.5869 8.99376C86.6735 8.78795 86.7602 8.59298 86.8468 8.39801C86.9443 8.20303 87.0418 8.00806 87.1393 7.82392C87.2368 7.65061 87.3343 7.49896 87.4317 7.34731C87.5184 7.19567 87.6267 7.04402 87.7459 6.90321C87.8975 6.66491 88.06 6.44828 88.2441 6.2533C88.4283 6.0475 88.6124 5.86336 88.7966 5.67922C88.9482 5.52757 89.0998 5.37593 89.2731 5.23512C89.4356 5.08347 89.6089 4.95349 89.7931 4.83434C89.9772 4.69352 90.1722 4.57438 90.3672 4.4444C90.573 4.31441 90.7788 4.19526 90.9954 4.07611C91.9811 3.56702 93.0751 3.17707 94.2775 2.92794C95.4798 2.67881 96.8229 2.54883 98.2852 2.54883C100.072 2.54883 101.719 2.77629 103.225 3.2204C104.73 3.65367 106.041 4.32524 107.146 5.23512C108.25 6.13416 109.106 7.28233 109.713 8.65797C110.319 10.0444 110.623 11.6692 110.623 13.5539C110.623 15.7095 110.179 17.4751 109.28 18.8724C108.391 20.2697 107.211 21.3204 105.748 22.0028C104.275 22.696 102.694 23.0426 100.972 23.0426C99.2384 23.0426 97.7653 22.7502 96.5305 22.1761C95.2956 21.602 94.3533 20.7788 93.7034 19.7064C93.0535 18.6341 92.7285 17.3451 92.7285 15.8503C92.7285 13.8031 93.2809 12.2325 94.3749 11.1384C95.4798 10.0553 96.9096 9.50285 98.6752 9.50285C100.408 9.50285 101.665 9.94695 102.445 10.8568C103.235 11.7559 103.614 12.7741 103.614 13.9006C103.614 14.6696 103.452 15.2112 103.127 15.5253C102.802 15.8395 102.369 16.0019 101.816 16.0019C101.264 16.0019 100.874 15.8395 100.647 15.5145C100.408 15.1895 100.224 14.8213 100.083 14.4097C99.9425 13.9872 99.7475 13.6189 99.5092 13.294C99.2601 12.969 98.8593 12.8065 98.2744 12.8065C97.6245 12.8065 97.1479 13.034 96.8338 13.5106C96.5196 13.9764 96.368 14.5721 96.368 15.3087C96.368 16.7277 96.8229 17.7892 97.7328 18.4932C98.6427 19.2081 99.7583 19.5548 101.069 19.5548C102.77 19.5548 104.145 19.0782 105.218 18.125C106.29 17.1826 106.821 15.7095 106.821 13.7056C106.821 11.1818 106.03 9.28621 104.438 8.04055C102.845 6.79489 100.863 6.16665 98.4802 6.16665C96.108 6.16665 94.2341 6.5891 92.8585 7.41231C91.472 8.24636 90.5296 9.47035 90.0314 11.0843C89.5331 12.6982 89.414 14.6696 89.6848 17.0093C89.9231 18.9157 90.118 20.4321 90.2913 21.5153C90.4646 22.5985 90.6488 23.4001 90.8438 23.8983C91.0387 24.3966 91.2554 24.7215 91.5153 24.8732C91.7753 25.0248 92.0894 25.1332 92.4794 25.1981C93.2809 25.3173 94.0933 25.4256 94.9057 25.5339C95.7289 25.6422 96.5196 25.7506 97.2779 25.8481C96.9312 27.462 96.8554 28.621 97.0504 29.3142C97.2454 30.0075 97.7003 30.3433 98.426 30.3433C98.9676 30.3433 99.4117 30.0725 99.7367 29.5309C100.062 28.9893 100.3 27.9603 100.473 26.4438C101.058 26.498 101.621 26.5738 102.185 26.6604C102.748 26.7579 103.268 26.8554 103.777 26.9529C103.181 29.7692 102.943 31.7297 103.062 32.8346C103.181 33.9394 103.723 34.4918 104.676 34.4918C105.055 34.4918 105.402 34.3077 105.716 33.9394C106.019 33.5711 106.29 32.8887 106.528 31.8814C106.767 30.874 106.962 29.4117 107.124 27.4945C108.056 27.6786 108.835 27.9494 109.474 28.3285C110.103 28.7077 110.623 29.1518 111.023 29.65C111.424 30.1591 111.717 30.7115 111.89 31.3073C112.063 31.9247 112.15 32.5529 112.15 33.192Z" fill="#57080D"/>
<path d="M141.937 11.9393C141.223 9.77294 140.226 7.99652 138.948 6.59922C137.681 5.21275 136.207 4.18373 134.561 3.51215C132.915 2.85141 131.149 2.51562 129.264 2.51562C126.177 2.51562 123.567 3.32801 121.422 4.94195C119.266 6.55589 117.642 8.73308 116.515 11.4627C115.389 14.1923 114.825 17.2361 114.825 20.6047C114.825 24.1901 115.313 27.3638 116.288 30.1259C117.263 32.8989 118.779 35.0652 120.826 36.6358C122.873 38.2173 125.506 38.9972 128.723 38.9972C131.777 38.9972 134.366 38.1631 136.5 36.5167C138.634 34.8594 140.248 32.5739 141.363 29.671C142.468 26.7572 143.021 23.4427 143.021 19.7165C143.01 16.6945 142.652 14.0948 141.937 11.9393ZM125.766 34.1229C125.495 34.4045 125.062 34.5453 124.466 34.5453C123.87 34.5453 123.404 34.3936 123.09 34.0904C122.776 33.7762 122.614 33.2671 122.614 32.5522C122.614 32.054 122.765 31.664 123.068 31.4041C123.383 31.1333 123.762 31.0033 124.206 31.0033C124.802 31.0033 125.278 31.1658 125.636 31.4907C125.982 31.8157 126.156 32.2056 126.156 32.6497C126.166 33.3538 126.036 33.8412 125.766 34.1229ZM132.189 34.5886C131.842 35.0002 131.301 35.1952 130.564 35.1952C129.763 35.1952 129.188 34.9894 128.842 34.5886C128.495 34.177 128.322 33.6679 128.322 33.0505C128.322 32.3139 128.528 31.7615 128.928 31.3716C129.34 30.9925 129.871 30.7975 130.521 30.7975C131.203 30.7975 131.734 30.9816 132.135 31.3607C132.525 31.729 132.72 32.3464 132.72 33.1913C132.72 33.7113 132.535 34.177 132.189 34.5886ZM127.52 28.1545C125.484 28.1545 123.838 27.7429 122.559 26.9197C121.985 26.5514 121.476 26.1181 121.043 25.6307C122.191 25.0133 123.025 24.4609 123.545 23.9843C124.108 23.4752 124.422 23.0202 124.487 22.652C124.542 22.2729 124.466 21.9479 124.271 21.6663C124.097 21.4171 123.838 21.2547 123.48 21.168C123.123 21.0814 122.592 21.168 121.888 21.4171C121.27 21.6338 120.436 22.0454 119.407 22.652C119.05 21.5363 118.877 20.3231 118.877 19.0233C118.877 18.4817 118.898 17.9401 118.942 17.4202C119.245 17.4852 119.548 17.5394 119.851 17.5935C120.566 17.7127 121.27 17.8318 121.974 17.9293C123.556 18.1459 124.661 18.2001 125.267 18.0918C125.885 17.9835 126.253 17.6477 126.361 17.0844C126.491 16.532 126.329 16.0554 125.885 15.6438C125.441 15.2322 124.357 14.7989 122.668 14.3331C121.964 14.1382 121.27 13.9649 120.588 13.824C120.285 13.759 119.981 13.6941 119.667 13.6291C119.776 13.2716 119.895 12.925 120.025 12.5892C120.545 11.2569 121.227 10.0979 122.094 9.1122C122.18 9.20969 122.267 9.29634 122.354 9.383C122.689 9.72961 123.166 10.1845 123.762 10.737C124.758 11.6902 125.571 12.2318 126.188 12.3726C126.805 12.5134 127.293 12.4051 127.661 12.0368C128.008 11.6902 128.127 11.2027 127.997 10.5745C127.867 9.94625 127.26 9.03637 126.156 7.83404C125.863 7.49826 125.549 7.19497 125.235 6.91334C125.191 6.87002 125.137 6.82669 125.094 6.79419C126.253 6.26343 127.574 5.99264 129.048 5.99264C130.217 5.99264 131.322 6.18761 132.34 6.56673C132.189 6.83752 132.005 7.16248 131.799 7.53076C131.279 8.54895 131.019 9.3505 131.019 9.94624C131.019 10.5312 131.225 10.9536 131.636 11.1811C132.232 11.4952 132.817 11.3869 133.391 10.8453C133.9 10.3579 134.496 9.52381 135.168 8.33232C135.893 9.02555 136.5 9.8596 137.009 10.8345C137.832 12.4159 138.233 14.344 138.233 16.6295C138.233 18.8825 137.8 20.8755 136.933 22.5978C136.067 24.3309 134.821 25.6957 133.218 26.6814C131.647 27.6563 129.73 28.1545 127.52 28.1545ZM137.291 31.5774C137.009 31.8915 136.597 32.054 136.067 32.054C135.363 32.054 134.875 31.9132 134.593 31.6315C134.312 31.3499 134.171 30.9491 134.171 30.4617C134.171 29.7251 134.323 29.216 134.637 28.9344C134.94 28.6528 135.373 28.512 135.915 28.512C136.543 28.512 137.009 28.6528 137.291 28.9236C137.572 29.2052 137.713 29.6818 137.713 30.3642C137.713 30.8516 137.572 31.2633 137.291 31.5774Z" fill="#B0160C"/>
<path d="M168.876 19.8897C167.804 19.2397 166.504 18.7523 164.955 18.449C164.793 18.4165 164.652 18.3624 164.554 18.2865C164.457 18.2107 164.403 18.1132 164.403 18.0049C164.403 17.7558 164.587 17.4958 164.933 17.225C165.28 16.9542 165.681 16.6076 166.125 16.1635C166.363 15.936 166.58 15.6652 166.775 15.3619C167.706 15.6219 168.497 15.8169 169.169 15.9469C170.252 16.1635 171.043 16.1852 171.541 16.0119C172.039 15.8385 172.299 15.4378 172.299 14.8204C172.299 14.4196 172.18 14.073 171.952 13.7805C171.714 13.488 171.162 13.2064 170.306 12.9248C169.721 12.7298 168.887 12.5132 167.826 12.2749C167.847 12.0149 167.858 11.7441 167.858 11.4517C167.858 10.2385 167.566 9.20948 166.981 8.37543C166.862 8.20212 166.732 8.03964 166.591 7.888C167.381 7.23809 168.021 6.70734 168.497 6.27406C169.353 5.52667 169.764 4.88759 169.764 4.3785C169.764 4.09687 169.71 3.85857 169.591 3.64193C169.472 3.43613 169.31 3.27365 169.104 3.1545C168.898 3.03535 168.66 2.9812 168.389 2.9812C168.042 2.9812 167.62 3.14367 167.132 3.45779C166.645 3.77191 166.049 4.25935 165.356 4.90926C164.933 5.31003 164.457 5.7758 163.937 6.29573C162.973 5.97077 161.846 5.81913 160.59 5.81913H160.482C160.601 4.81177 160.666 3.98855 160.687 3.33864C160.72 2.45044 160.622 1.81136 160.406 1.44308C160.178 1.06396 159.767 0.879822 159.171 0.879822C158.705 0.879822 158.326 1.05313 158.044 1.37808C157.763 1.71387 157.535 2.29879 157.351 3.1545C157.21 3.84774 157.07 4.75761 156.94 5.92744C156.755 5.93828 156.571 5.94911 156.387 5.95994C155.456 6.0141 154.546 6.10076 153.679 6.23074C153.528 4.94175 153.387 3.91273 153.235 3.13284C153.04 2.14714 152.791 1.47557 152.488 1.09646C152.174 0.717345 151.751 0.533203 151.199 0.533203C150.516 0.533203 150.061 0.739012 149.823 1.13979C149.596 1.5514 149.563 2.27713 149.726 3.33864C149.866 4.22685 150.126 5.42918 150.516 6.95647C149.91 7.18393 149.379 7.45473 148.913 7.77968C148.068 8.3646 147.657 9.16616 147.657 10.1844C147.657 10.7476 147.711 11.7116 147.819 13.0764C147.928 14.4521 148.068 16.0335 148.231 17.8316C148.404 19.6297 148.577 21.4711 148.772 23.3667C148.967 25.2514 149.152 27.017 149.336 28.6634C149.52 30.299 149.671 31.6422 149.812 32.6712C150.007 34.2201 150.354 35.4658 150.863 36.3865C151.361 37.3072 152.141 37.9788 153.213 38.4012C154.275 38.8128 155.759 39.0186 157.665 39.0186C160.384 39.0186 162.832 38.5854 165.009 37.7188C167.197 36.8523 168.92 35.5633 170.198 33.8519C171.465 32.1296 172.104 29.9957 172.104 27.4286C172.104 25.5005 171.833 23.9299 171.292 22.7168C170.75 21.4819 169.938 20.5504 168.876 19.8897ZM154.372 11.9933C154.643 10.9534 155.196 10.1952 156.008 9.70775C156.82 9.23115 158.055 8.98202 159.702 8.98202C160.633 8.98202 161.402 9.10117 162.009 9.31781C162.615 9.54527 163.081 9.88106 163.385 10.3143C163.699 10.7584 163.85 11.3217 163.85 12.0041C163.85 12.7623 163.58 13.4989 163.049 14.2355C162.518 14.972 161.836 15.6327 161.002 16.2177C160.167 16.8134 159.29 17.29 158.369 17.6475C157.449 18.0049 156.582 18.1891 155.791 18.1891C155.401 18.1891 155.077 18.1132 154.806 17.9616C154.524 17.8099 154.318 17.5825 154.177 17.2792C154.037 16.9651 153.961 16.5643 153.961 16.066C153.961 14.3871 154.102 13.0331 154.372 11.9933ZM157.849 34.3176C157.167 34.87 156.517 35.1409 155.9 35.1409C155.488 35.1409 155.12 35.0109 154.817 34.7726C154.513 34.5234 154.275 34.1551 154.102 33.6677C153.928 33.1911 153.853 32.5954 153.853 31.8913C153.853 29.3458 154.058 27.2661 154.448 25.6522C154.849 24.0491 155.477 22.8684 156.344 22.121C157.21 21.3628 158.337 20.9945 159.745 20.9945C160.276 20.9945 160.763 21.0595 161.197 21.1786C161.63 21.3086 162.009 21.4928 162.323 21.7419C162.637 21.991 162.886 22.3051 163.06 22.6951C163.233 23.0742 163.32 23.54 163.32 24.0707C163.32 24.699 163.157 25.4897 162.854 26.4321C162.55 27.3744 162.128 28.3385 161.597 29.3458C161.067 30.3424 160.482 31.2847 159.832 32.1729C159.203 33.0503 158.532 33.7652 157.849 34.3176ZM163.926 35.5958C163.645 35.8991 163.298 36.0507 162.897 36.0507C162.28 36.0507 161.836 35.9099 161.554 35.6391C161.283 35.3683 161.142 35.0109 161.142 34.5559C161.142 33.9602 161.283 33.5269 161.565 33.2561C161.846 32.9853 162.291 32.8553 162.886 32.8553C163.33 32.8553 163.688 32.9961 163.948 33.2669C164.208 33.5377 164.338 33.9168 164.338 34.4043C164.349 34.8917 164.208 35.3033 163.926 35.5958ZM167.793 32.1513C167.446 32.5195 167.035 32.7037 166.558 32.7037C165.963 32.7037 165.486 32.5412 165.128 32.2271C164.782 31.913 164.609 31.4472 164.609 30.8514C164.609 30.2557 164.771 29.7899 165.096 29.4758C165.421 29.1617 165.963 28.9992 166.71 28.9992C167.111 28.9992 167.479 29.1508 167.804 29.4325C168.14 29.7249 168.302 30.169 168.302 30.7431C168.302 31.3172 168.129 31.783 167.793 32.1513ZM168.833 27.0603C168.551 27.3528 168.151 27.4936 167.652 27.4936C167.154 27.4936 166.764 27.3528 166.482 27.0711C166.201 26.7895 166.06 26.4104 166.06 25.9446C166.06 25.3597 166.201 24.9373 166.472 24.6882C166.742 24.4282 167.089 24.2982 167.511 24.2982C168.161 24.2982 168.616 24.4282 168.876 24.699C169.136 24.9698 169.266 25.3489 169.266 25.8471C169.245 26.3671 169.104 26.7678 168.833 27.0603Z" fill="#FB8106"/>
<path d="M179.556 26.2346C179.08 25.7472 178.375 25.498 177.422 25.498C176.502 25.498 175.819 25.7688 175.353 26.3104C174.898 26.852 174.66 27.5994 174.66 28.5526C174.66 29.3 174.92 29.9174 175.451 30.3832C175.971 30.8598 176.794 31.0981 177.91 31.0981C178.614 31.0981 179.177 30.8273 179.61 30.2857C180.044 29.7441 180.26 29.0617 180.26 28.2493C180.271 27.3936 180.033 26.7329 179.556 26.2346Z" fill="#57080D"/>
<path d="M195.663 36.0916C195.663 36.4707 195.544 36.7849 195.327 37.0123C195.1 37.2506 194.764 37.4239 194.298 37.5539C193.843 37.6839 193.258 37.7706 192.565 37.8356C192.229 37.8572 191.731 37.8897 191.081 37.9222C190.421 37.9655 189.662 38.0089 188.817 38.063C188.633 38.063 188.438 38.0739 188.232 38.0847C188.027 38.1064 187.821 38.1172 187.615 38.128C187.409 38.1389 187.193 38.1497 186.976 38.1713C186.77 38.1713 186.575 38.1822 186.369 38.1822C186.164 38.193 185.958 38.2038 185.763 38.2147C185.557 38.2255 185.351 38.2363 185.135 38.258C184.723 38.2797 184.301 38.2905 183.889 38.3122C183.466 38.3338 183.066 38.3447 182.665 38.3663C182.513 38.3663 182.362 38.3771 182.21 38.3771C182.048 38.388 181.896 38.3988 181.733 38.4096C181.571 38.4205 181.419 38.4313 181.268 38.453C181.083 38.453 180.91 38.453 180.737 38.4638C180.564 38.4746 180.39 38.4746 180.228 38.4746C180.054 38.4746 179.892 38.4855 179.73 38.5071C179.264 38.5288 178.841 38.5396 178.473 38.5505C178.105 38.5613 177.78 38.5721 177.509 38.5938C176.556 38.6154 175.863 38.4855 175.418 38.2147C174.974 37.9439 174.758 37.4998 174.758 36.8932C174.758 36.3516 175.007 35.8858 175.505 35.5176C176.003 35.1493 176.653 34.8568 177.455 34.6402C178.051 34.456 178.83 34.2827 179.762 34.1094C180.704 33.9361 181.701 33.6978 182.752 33.3945C183.196 33.2537 183.499 33.0046 183.651 32.6363C183.802 32.268 183.835 31.8347 183.748 31.3365C183.499 29.5384 183.25 27.7511 182.99 25.9639C182.73 24.1875 182.448 22.3894 182.145 20.5913C183.683 20.4397 184.723 20.2014 185.265 19.8656C185.817 19.5298 186.088 19.0857 186.088 18.5441C186.088 17.9159 185.774 17.5259 185.135 17.3743C184.506 17.2226 183.337 17.2659 181.636 17.5042C181.56 17.0601 181.484 16.5835 181.398 16.1069C181.3 15.6195 181.213 15.1537 181.138 14.6988C182.524 14.6338 183.553 14.5255 184.246 14.363C184.94 14.2005 185.395 13.9947 185.633 13.7456C185.871 13.4965 185.979 13.204 185.979 12.8466C185.979 12.2183 185.633 11.7959 184.94 11.6009C184.246 11.3951 182.773 11.3951 180.531 11.6009C180.477 11.2976 180.423 11.0052 180.358 10.7019C180.293 10.3986 180.228 10.1061 180.184 9.80283C180.087 9.27207 179.935 8.84962 179.73 8.5355C179.513 8.22138 179.242 8.02641 178.885 7.96142C178.516 7.87477 178.17 7.80977 177.845 7.76645C177.52 7.72312 177.184 7.66896 176.837 7.60397C176.242 7.45232 175.733 7.24652 175.31 6.99739C174.899 6.73743 174.682 6.32581 174.682 5.76256C174.682 5.026 174.953 4.56023 175.494 4.33277C176.036 4.11613 176.718 4.00781 177.531 4.00781C180.163 4.02948 182.752 4.09447 185.319 4.20278C187.875 4.32193 190.453 4.47358 193.053 4.65772C194.049 4.72271 194.807 4.93935 195.306 5.30763C195.804 5.67591 196.053 6.27166 196.053 7.10571C196.053 8.10223 195.815 8.75214 195.338 9.02293C194.862 9.30456 194.363 9.44538 193.822 9.44538C193.378 9.44538 192.955 9.42372 192.587 9.38039C192.208 9.33706 191.774 9.30456 191.276 9.29373C190.778 9.27207 190.421 9.38039 190.215 9.59702C190.009 9.81366 189.857 10.2144 189.781 10.7885C189.327 14.2547 188.937 17.71 188.59 21.1437C188.254 24.5882 187.962 27.9461 187.723 31.2281C187.669 31.7806 187.788 32.1922 188.048 32.463C188.319 32.7338 188.655 32.9396 189.077 33.0696C189.619 33.232 190.269 33.3945 191.005 33.5462C191.753 33.6978 192.457 33.8711 193.118 34.0661C193.919 34.2827 194.547 34.5535 194.992 34.8893C195.446 35.2034 195.663 35.615 195.663 36.0916Z" fill="#57080D"/>
<path d="M42.1115 59.5005H36.1323L34.8975 62.3167H33.2402L38.342 51.0625H39.9343L45.0469 62.3167H43.3571L42.1115 59.5005ZM41.5482 58.2115L39.1219 52.6981L36.6956 58.2115H41.5482Z" fill="#57080D"/>
<path d="M48.3182 52.4598V56.3809H53.9616V57.7674H48.3182V62.3167H46.7151V51.0625H54.6656V52.4598H48.3182Z" fill="#57080D"/>
<path d="M64.4572 62.3167L62.0309 58.8614C61.7276 58.8831 61.4893 58.8939 61.3268 58.8939H58.543V62.3167H56.9399V51.0625H61.3268C62.7891 51.0625 63.9373 51.4091 64.7713 52.1132C65.6054 52.8064 66.0278 53.7704 66.0278 54.9944C66.0278 55.861 65.8112 56.5975 65.3888 57.215C64.9555 57.8215 64.3489 58.2765 63.5582 58.5473L66.2228 62.3276H64.4572V62.3167ZM63.6015 56.8683C64.1323 56.4242 64.4031 55.8068 64.4031 54.9836C64.4031 54.1712 64.1323 53.543 63.6015 53.1097C63.0599 52.6764 62.2909 52.4598 61.2727 52.4598H58.543V57.5291H61.2727C62.2909 57.5291 63.0599 57.3016 63.6015 56.8683Z" fill="#57080D"/>
<path d="M68.6169 51.0625H70.2201V62.3167H68.6169V51.0625Z" fill="#57080D"/>
<path d="M75.5929 61.6994C74.683 61.2011 73.9789 60.5187 73.459 59.6413C72.9391 58.7639 72.6899 57.7891 72.6899 56.6951C72.6899 55.601 72.9499 54.6153 73.459 53.7488C73.9789 52.8714 74.683 52.189 75.5929 51.6908C76.5027 51.1925 77.5209 50.9434 78.6474 50.9434C79.5248 50.9434 80.3264 51.095 81.0629 51.3875C81.7887 51.6799 82.4169 52.124 82.926 52.6981L81.8753 53.7163C81.0304 52.8281 79.9689 52.384 78.7016 52.384C77.8675 52.384 77.1093 52.5681 76.4377 52.9472C75.7662 53.3264 75.2354 53.8355 74.8563 54.4962C74.4772 55.1569 74.2822 55.8935 74.2822 56.7059C74.2822 57.5183 74.4772 58.2548 74.8563 58.9156C75.2354 59.5763 75.7662 60.0962 76.4377 60.4645C77.1093 60.8436 77.8675 61.0278 78.7016 61.0278C79.9581 61.0278 81.0088 60.5729 81.8753 59.6738L82.926 60.692C82.4061 61.2661 81.7887 61.7102 81.0521 62.0135C80.3155 62.3168 79.514 62.4684 78.6366 62.4684C77.5101 62.4467 76.4919 62.1976 75.5929 61.6994Z" fill="#57080D"/>
<path d="M92.1327 59.5005H86.1536L84.9187 62.3167H83.2615L88.3633 51.0625H89.9555L95.0681 62.3167H93.3676L92.1327 59.5005ZM91.5695 58.2115L89.1432 52.6981L86.7168 58.2115H91.5695Z" fill="#57080D"/>
<path d="M106.409 51.0625V62.3167H105.088L98.3287 53.9221V62.3167H96.7256V51.0625H98.0471L104.806 59.4572V51.0625H106.409Z" fill="#57080D"/>
<path d="M115.724 52.4598V56.3809H121.368V57.7674H115.724V62.3167H114.121V51.0625H122.072V52.4598H115.724Z" fill="#57080D"/>
<path d="M126.21 61.6995C125.3 61.2013 124.585 60.508 124.065 59.6307C123.545 58.7533 123.285 57.7676 123.285 56.6844C123.285 55.6012 123.545 54.6155 124.065 53.7381C124.585 52.8608 125.3 52.1675 126.21 51.6693C127.119 51.171 128.148 50.9219 129.286 50.9219C130.412 50.9219 131.43 51.171 132.34 51.6693C133.25 52.1675 133.965 52.8499 134.474 53.7273C134.994 54.6047 135.243 55.5796 135.243 56.6736C135.243 57.7676 134.983 58.7533 134.474 59.6198C133.954 60.4972 133.25 61.1796 132.34 61.6779C131.43 62.1761 130.412 62.4253 129.286 62.4253C128.148 62.4469 127.119 62.1978 126.21 61.6995ZM131.506 60.4539C132.167 60.0748 132.687 59.5657 133.066 58.9049C133.445 58.2442 133.64 57.5076 133.64 56.6952C133.64 55.8829 133.445 55.1463 133.066 54.4855C132.687 53.8248 132.167 53.3049 131.506 52.9366C130.846 52.5575 130.109 52.3733 129.275 52.3733C128.452 52.3733 127.704 52.5575 127.033 52.9366C126.361 53.3157 125.841 53.8248 125.451 54.4855C125.072 55.1463 124.877 55.8829 124.877 56.6952C124.877 57.5076 125.072 58.2442 125.451 58.9049C125.83 59.5657 126.361 60.0856 127.033 60.4539C127.704 60.833 128.452 61.0171 129.275 61.0171C130.109 61.0171 130.856 60.8222 131.506 60.4539Z" fill="#57080D"/>
<path d="M139.717 61.6995C138.807 61.2013 138.092 60.508 137.572 59.6307C137.052 58.7533 136.792 57.7676 136.792 56.6844C136.792 55.6012 137.052 54.6155 137.572 53.7381C138.092 52.8608 138.807 52.1675 139.717 51.6693C140.627 51.171 141.656 50.9219 142.793 50.9219C143.92 50.9219 144.938 51.171 145.848 51.6693C146.757 52.1675 147.472 52.8499 147.981 53.7273C148.501 54.6047 148.751 55.5796 148.751 56.6736C148.751 57.7676 148.491 58.7533 147.981 59.6198C147.462 60.4972 146.757 61.1796 145.848 61.6779C144.938 62.1761 143.92 62.4253 142.793 62.4253C141.656 62.4469 140.638 62.1978 139.717 61.6995ZM145.024 60.4539C145.685 60.0748 146.205 59.5657 146.584 58.9049C146.963 58.2442 147.158 57.5076 147.158 56.6952C147.158 55.8829 146.963 55.1463 146.584 54.4855C146.205 53.8248 145.685 53.3049 145.024 52.9366C144.364 52.5575 143.627 52.3733 142.793 52.3733C141.97 52.3733 141.222 52.5575 140.551 52.9366C139.879 53.3157 139.359 53.8248 138.969 54.4855C138.59 55.1463 138.395 55.8829 138.395 56.6952C138.395 57.5076 138.59 58.2442 138.969 58.9049C139.349 59.5657 139.879 60.0856 140.551 60.4539C141.222 60.833 141.97 61.0171 142.793 61.0171C143.616 61.0171 144.364 60.8222 145.024 60.4539Z" fill="#57080D"/>
<path d="M151.22 51.0625H155.964C157.156 51.0625 158.206 51.3008 159.138 51.7666C160.059 52.2432 160.774 52.9039 161.283 53.7488C161.792 54.6045 162.052 55.5794 162.052 56.6842C162.052 57.789 161.792 58.7639 161.283 59.6196C160.774 60.4753 160.059 61.1361 159.138 61.6018C158.217 62.0784 157.156 62.3059 155.964 62.3059H151.22V51.0625ZM155.867 60.9194C156.777 60.9194 157.578 60.7461 158.271 60.3887C158.965 60.0312 159.495 59.5438 159.875 58.9047C160.254 58.2656 160.438 57.5291 160.438 56.695C160.438 55.861 160.254 55.1244 159.875 54.4853C159.495 53.8463 158.965 53.348 158.271 53.0014C157.578 52.6439 156.777 52.4706 155.867 52.4706H152.834V60.9303H155.867V60.9194Z" fill="#57080D"/>
</svg>
