<svg width="47" height="30" viewBox="0 0 47 30" fill="none" xmlns="http://www.w3.org/2000/svg">
<rect x="0.956055" y="0.5" width="45.2281" height="29" rx="3.5" fill="white" stroke="#B2BCCA"/>
<path d="M26.4561 29L45.4561 23.25V26C45.4561 27.6569 44.1129 29 42.4561 29H26.4561Z" fill="#FD6020"/>
<path fill-rule="evenodd" clip-rule="evenodd" d="M40.421 11.3886C41.8423 11.3886 42.6239 11.993 42.6239 13.1347C42.695 14.0078 42.0554 14.7466 41.2027 14.8809L43.1214 17.3657H41.6291L39.9946 14.948H39.8525V17.3657H38.6445V11.3886H40.421ZM39.8526 14.1421H40.2079C40.9895 14.1421 41.3448 13.8063 41.3448 13.2019C41.3448 12.6646 40.9895 12.3288 40.2079 12.3288H39.8526V14.1421ZM34.452 17.3657H37.8629V16.3584H35.66V14.7466H37.7918V13.7392H35.66V12.396H37.8629V11.3886H34.452V17.3657ZM30.8988 15.4181L29.2643 11.3886H27.9852L30.6145 17.5001H31.2541L33.8834 11.3886H32.6042L30.8988 15.4181ZM16.4732 14.4106C16.4732 16.0896 17.8944 17.4999 19.6709 17.4999C20.2394 17.4999 20.7369 17.3656 21.2343 17.1641V15.821C20.879 16.2239 20.3816 16.4926 19.8131 16.4926C18.6761 16.4926 17.7523 15.6867 17.7523 14.6121V14.4778C17.6812 13.4033 18.605 12.463 19.742 12.3959C20.3105 12.3959 20.879 12.6645 21.2343 13.0675V11.7243C20.8079 11.4557 20.2394 11.3885 19.742 11.3885C17.8944 11.2542 16.4732 12.6645 16.4732 14.4106ZM14.2703 13.672C13.5597 13.4033 13.3465 13.269 13.3465 12.9332C13.4176 12.5303 13.7729 12.1945 14.1993 12.2616C14.5546 12.2616 14.9099 12.4631 15.1941 12.7317L15.8337 11.9258C15.3363 11.5229 14.6967 11.2542 14.0571 11.2542C13.0623 11.1871 12.2095 11.9258 12.1385 12.8661V12.9332C12.1385 13.7391 12.4938 14.2092 13.6308 14.545C13.915 14.6122 14.1993 14.7465 14.4835 14.8808C14.6967 15.0151 14.8388 15.2166 14.8388 15.4852C14.8388 15.9554 14.4124 16.3583 13.9861 16.3583H13.915C13.3465 16.3583 12.8491 16.0225 12.6359 15.5524L11.8542 16.2911C12.2806 17.0299 13.1333 17.4328 13.9861 17.4328C15.1231 17.5 16.0469 16.6941 16.1179 15.6196V15.4181C16.0469 14.6122 15.6916 14.2092 14.2703 13.672ZM10.1488 17.3657H11.3568V11.3886H10.1488V17.3657ZM4.53491 11.3886H6.31145H6.66676C8.37224 11.4558 9.72241 12.799 9.65135 14.4108C9.65135 15.2838 9.22498 16.0897 8.51437 16.6942C7.87481 17.1643 7.09313 17.4329 6.31145 17.3658H4.53491V11.3886ZM6.09831 16.3584C6.66681 16.4256 7.30636 16.2241 7.73273 15.8883C8.1591 15.4854 8.37229 14.9481 8.37229 14.3437C8.37229 13.8064 8.1591 13.2691 7.73273 12.8662C7.30636 12.5304 6.66681 12.3289 6.09831 12.3961H5.743V16.3584H6.09831Z" fill="black"/>
<path fill-rule="evenodd" clip-rule="evenodd" d="M24.8587 11.25C23.0821 11.25 21.5898 12.5932 21.5898 14.3393C21.5898 16.0183 23.0111 17.4286 24.8587 17.4958C26.7063 17.5629 28.1275 16.1526 28.1986 14.4065C28.1275 12.6603 26.7063 11.25 24.8587 11.25V11.25Z" fill="#FD6020"/>
</svg>
