<svg width="28" height="27" viewBox="0 0 28 27" fill="none" xmlns="http://www.w3.org/2000/svg">
<g id="bi:check">
<rect x="0.499023" width="27.0012" height="27.0012" rx="13.5006" fill="#F27F0E"/>
<path id="Vector" d="M19.0118 8.38806C19.2495 8.16174 19.5658 8.03662 19.8941 8.0391C20.2223 8.04158 20.5367 8.17148 20.771 8.40137C21.0052 8.63126 21.141 8.94317 21.1497 9.27129C21.1584 9.5994 21.0393 9.91806 20.8175 10.16L14.084 18.581C13.9683 18.7057 13.8285 18.8058 13.6732 18.8753C13.5178 18.9447 13.3501 18.9822 13.1799 18.9853C13.0098 18.9885 12.8408 18.9573 12.683 18.8936C12.5251 18.8299 12.3818 18.7351 12.2615 18.6148L7.79615 14.1494C7.6718 14.0336 7.57206 13.8938 7.50288 13.7386C7.4337 13.5833 7.39651 13.4157 7.39351 13.2458C7.39051 13.0758 7.42177 12.907 7.48543 12.7494C7.54909 12.5918 7.64383 12.4487 7.76402 12.3285C7.88421 12.2083 8.02737 12.1135 8.18497 12.0499C8.34257 11.9862 8.51138 11.955 8.68132 11.958C8.85126 11.961 9.01886 11.9982 9.17412 12.0673C9.32937 12.1365 9.4691 12.2363 9.58498 12.3606L13.1188 15.8927L18.9797 8.42518C18.9903 8.41219 19.0015 8.3998 19.0134 8.38806H19.0118Z" fill="white"/>
</g>
</svg>
