<svg width="44" height="44" viewBox="0 0 44 44" fill="none" xmlns="http://www.w3.org/2000/svg">
<g clip-path="url(#clip0_208_3580)">
<g clip-path="url(#clip1_208_3580)">
<path fill-rule="evenodd" clip-rule="evenodd" d="M0.392274 41.6895C0.116254 42.3101 0.250565 43.0368 0.731322 43.5171C1.21165 43.9975 1.93834 44.1322 2.55896 43.8562C9.01262 40.9827 27.4275 32.7834 32.4134 30.5635C32.9071 30.3439 33.2609 29.8951 33.3596 29.3634C33.4583 28.8322 33.2887 28.2861 32.9062 27.904C29.7076 24.7055 19.543 14.5409 16.3445 11.3419C15.9624 10.9598 15.4163 10.7902 14.8851 10.8889C14.3534 10.9876 13.9046 11.3414 13.6845 11.8351L0.392274 41.6895ZM1.66175 42.2545L14.954 12.4001C14.9878 12.3241 15.0564 12.27 15.1379 12.2551C15.2194 12.2398 15.3032 12.2658 15.3616 12.3246L31.9238 28.8863C31.9826 28.9451 32.0085 29.0289 31.9933 29.1105C31.9785 29.1915 31.9238 29.2605 31.8483 29.2944L1.99383 42.5866C1.89886 42.6287 1.78724 42.6084 1.71361 42.5348C1.63998 42.4611 1.61914 42.3495 1.66175 42.2545Z" fill="#F27F0E"/>
<path fill-rule="evenodd" clip-rule="evenodd" d="M11.059 19.3004C11.4897 19.5366 11.8126 19.8998 12.0071 20.3647C12.3133 21.096 12.7148 22.0553 13.0204 22.7866C13.3919 23.674 14.0505 24.3331 14.9379 24.7041C15.6692 25.0103 16.6289 25.4118 17.3598 25.7175C17.9021 25.9444 18.3051 26.3469 18.532 26.8893C18.8377 27.6206 19.2393 28.5802 19.5454 29.3116C19.9164 30.1986 20.5755 30.8577 21.4629 31.2291C22.1938 31.5348 23.1534 31.9364 23.8847 32.242C24.3498 32.4365 24.7129 32.7599 24.949 33.1906C25.1334 33.5264 25.5562 33.6501 25.8921 33.4657C26.2283 33.2814 26.352 32.8585 26.1677 32.5223C25.7795 31.8146 25.1853 31.28 24.421 30.9605C23.6897 30.6543 22.7301 30.2532 21.9992 29.9471C21.4568 29.7202 21.0539 29.3177 20.827 28.7753C20.5213 28.044 20.1197 27.0843 19.8136 26.3534C19.4426 25.466 18.7835 24.8069 17.8961 24.4355C17.1652 24.1298 16.2056 23.7282 15.4742 23.4225C14.9319 23.1956 14.5289 22.7926 14.3024 22.2503C13.9963 21.5194 13.5948 20.5597 13.2891 19.8284C12.9695 19.0642 12.435 18.4699 11.7273 18.0818C11.391 17.8975 10.9682 18.0207 10.7838 18.3569C10.5995 18.6932 10.7227 19.1161 11.059 19.3004ZM30.3181 30.4644L15.6976 15.8439C15.4262 15.5729 14.9862 15.5729 14.7147 15.8439C14.4437 16.1148 14.4437 16.5552 14.7147 16.8262L29.3358 31.4473C29.6067 31.7182 30.0471 31.7182 30.3181 31.4473C30.5895 31.1759 30.5895 30.7359 30.3181 30.4644Z" fill="#F27F0E"/>
<path fill-rule="evenodd" clip-rule="evenodd" d="M6.39739 29.7245C6.65491 29.8751 6.86748 30.0895 7.01573 30.3484C7.23292 30.7287 7.51826 31.2275 7.73552 31.6077C8.00969 32.0871 8.40429 32.4817 8.8837 32.7554C9.26351 32.9731 9.76234 33.2579 10.1426 33.4752C10.4061 33.6262 10.6233 33.8434 10.7739 34.1069C10.9916 34.4872 11.2764 34.986 11.4936 35.3658C11.7678 35.8452 12.1624 36.2398 12.6418 36.514C13.0221 36.7312 13.5209 37.0165 13.9007 37.2338C14.1601 37.3819 14.3745 37.5946 14.5246 37.8521C14.7182 38.1833 15.1439 38.2954 15.475 38.1022C15.8062 37.9087 15.9183 37.483 15.7251 37.1518C15.4514 36.6831 15.0619 36.2973 14.5908 36.0277C14.2106 35.8106 13.7118 35.5252 13.3315 35.308C13.068 35.157 12.8508 34.9402 12.7002 34.6762C12.4831 34.2964 12.1977 33.7976 11.9805 33.4174C11.7063 32.938 11.3117 32.5433 10.8323 32.2692C10.452 32.052 9.95321 31.7667 9.57339 31.5494C9.3094 31.3984 9.09264 31.1817 8.94161 30.9181C8.72442 30.5379 8.43908 30.039 8.22182 29.6588C7.95228 29.1873 7.56642 28.7982 7.09776 28.5245C6.7666 28.3313 6.34098 28.4435 6.14734 28.7746C5.9542 29.1058 6.06624 29.5314 6.39739 29.7245ZM19.3251 35.3594L12.1939 28.2276C11.9229 27.9567 11.4825 27.9567 11.2115 28.2276C10.9405 28.499 10.9405 28.939 11.2115 29.2105L18.3428 36.3417C18.6142 36.6127 19.0542 36.6127 19.3251 36.3417C19.5966 36.0704 19.5966 35.6304 19.3251 35.3594ZM10.501 26.5348L8.89017 24.9239C8.61921 24.653 8.17878 24.653 7.90782 24.9239C7.63685 25.1953 7.63685 25.6353 7.90782 25.9068L9.51869 27.5177C9.78966 27.7886 10.2301 27.7886 10.501 27.5177C10.7724 27.2462 10.7724 26.8062 10.501 26.5348Z" fill="#F27F0E"/>
<path fill-rule="evenodd" clip-rule="evenodd" d="M4.86523 12.8881V15.2373C4.86523 15.6208 5.17647 15.932 5.55998 15.932C5.94349 15.932 6.25472 15.6208 6.25472 15.2373V12.8881C6.25472 12.5046 5.94349 12.1934 5.55998 12.1934C5.17647 12.1934 4.86523 12.5046 4.86523 12.8881Z" fill="#F27F0E"/>
<path fill-rule="evenodd" clip-rule="evenodd" d="M28.4443 14.4975V16.8466C28.4443 17.2296 28.7556 17.5414 29.1391 17.5414C29.5221 17.5414 29.8338 17.2296 29.8338 16.8466V14.4975C29.8338 14.114 29.5221 13.8027 29.1391 13.8027C28.7556 13.8027 28.4443 14.114 28.4443 14.4975Z" fill="#F27F0E"/>
<path fill-rule="evenodd" clip-rule="evenodd" d="M23.6016 39.4428V41.7914C23.6016 42.175 23.9128 42.4862 24.2963 42.4862C24.6798 42.4862 24.9911 42.175 24.9911 41.7914V39.4428C24.9911 39.0593 24.6798 38.748 24.2963 38.748C23.9128 38.748 23.6016 39.0593 23.6016 39.4428Z" fill="#F27F0E"/>
<path fill-rule="evenodd" clip-rule="evenodd" d="M4.38517 14.7567H6.73433C7.11784 14.7567 7.42907 14.4454 7.42907 14.0619C7.42907 13.6784 7.11784 13.3672 6.73433 13.3672H4.38517C4.00216 13.3672 3.69043 13.6784 3.69043 14.0619C3.69043 14.4454 4.00216 14.7567 4.38517 14.7567Z" fill="#F27F0E"/>
<path fill-rule="evenodd" clip-rule="evenodd" d="M27.9643 16.3661H30.3129C30.6964 16.3661 31.0077 16.0548 31.0077 15.6713C31.0077 15.2878 30.6964 14.9766 30.3129 14.9766H27.9643C27.5808 14.9766 27.2695 15.2878 27.2695 15.6713C27.2695 16.0547 27.5808 16.3661 27.9643 16.3661Z" fill="#F27F0E"/>
<path fill-rule="evenodd" clip-rule="evenodd" d="M23.122 41.3114H25.4711C25.8547 41.3114 26.1659 40.9996 26.1659 40.6166C26.1659 40.2331 25.8547 39.9219 25.4711 39.9219H23.122C22.739 39.9219 22.4272 40.2331 22.4272 40.6166C22.4272 40.9996 22.739 41.3114 23.122 41.3114Z" fill="#F27F0E"/>
<path fill-rule="evenodd" clip-rule="evenodd" d="M19.9011 4.11523C18.6469 4.11523 17.6279 5.13416 17.6279 6.38841C17.6279 7.64309 18.6469 8.66159 19.9011 8.66159C21.1558 8.66159 22.1748 7.64309 22.1748 6.38841C22.1747 5.13416 21.1558 4.11523 19.9011 4.11523ZM19.9011 5.50472C20.3893 5.50472 20.7853 5.90075 20.7853 6.38841C20.7853 6.87657 20.3893 7.2721 19.9011 7.2721C19.4134 7.2721 19.0174 6.87657 19.0174 6.38841C19.0173 5.90068 19.4134 5.50472 19.9011 5.50472Z" fill="#F27F0E"/>
<path fill-rule="evenodd" clip-rule="evenodd" d="M39.7659 15.8359C38.5112 15.8359 37.4927 16.8549 37.4927 18.1091C37.4927 19.3638 38.5112 20.3823 39.7659 20.3823C41.0205 20.3823 42.039 19.3638 42.039 18.1091C42.0391 16.8549 41.0206 15.8359 39.7659 15.8359ZM39.7659 17.2254C40.2536 17.2254 40.6495 17.6215 40.6495 18.1091C40.6495 18.5968 40.2535 18.9928 39.7659 18.9928C39.2781 18.9928 38.8822 18.5968 38.8822 18.1091C38.8822 17.6214 39.2782 17.2254 39.7659 17.2254Z" fill="#F27F0E"/>
<path fill-rule="evenodd" clip-rule="evenodd" d="M36.6086 34.3457C35.3539 34.3457 34.3354 35.3642 34.3354 36.6189C34.3354 37.8736 35.3539 38.8921 36.6086 38.8921C37.8629 38.8921 38.8818 37.8736 38.8818 36.6189C38.8818 35.3642 37.8629 34.3457 36.6086 34.3457ZM36.6086 35.7352C37.0964 35.7352 37.4923 36.1312 37.4923 36.6189C37.4923 37.1066 37.0963 37.5026 36.6086 37.5026C36.1209 37.5026 35.7249 37.1065 35.7249 36.6189C35.7249 36.1312 36.1209 35.7352 36.6086 35.7352Z" fill="#F27F0E"/>
<path fill-rule="evenodd" clip-rule="evenodd" d="M11.0971 10.3629C9.70905 6.46999 7.20382 3.69429 3.16597 2.45071C2.79917 2.33816 2.41011 2.54383 2.29757 2.91062C2.18453 3.27699 2.39069 3.66605 2.75706 3.77901C6.3461 4.88366 8.55446 7.3694 9.7883 10.8297C9.91706 11.1909 10.3149 11.3794 10.6762 11.2507C11.0374 11.122 11.2259 10.7241 11.0971 10.3629Z" fill="#F27F0E"/>
<path fill-rule="evenodd" clip-rule="evenodd" d="M35.6843 13.0309C36.9182 9.57064 39.127 7.08483 42.716 5.97976C43.0824 5.86722 43.2885 5.47816 43.1755 5.11179C43.0629 4.745 42.6734 4.53934 42.3071 4.65188C38.2692 5.89546 35.764 8.67116 34.3759 12.564C34.2472 12.9253 34.4357 13.3232 34.7969 13.4519C35.1582 13.5807 35.5556 13.3922 35.6843 13.0309Z" fill="#F27F0E"/>
<path fill-rule="evenodd" clip-rule="evenodd" d="M29.7157 9.69652C29.9473 7.87493 29.8436 6.16262 29.3494 4.57856C28.8505 2.98021 27.9553 1.51062 26.5922 0.194763C26.3161 -0.0715819 25.8761 -0.0636855 25.6098 0.211907C25.3435 0.487927 25.3514 0.927922 25.6269 1.19427C26.8089 2.33548 27.5903 3.60638 28.0229 4.99267C28.4601 6.39375 28.5426 7.90965 28.3374 9.52102C28.2888 9.90126 28.5584 10.2496 28.9386 10.2977C29.3193 10.3464 29.6671 10.0768 29.7157 9.69652Z" fill="#F27F0E"/>
<path fill-rule="evenodd" clip-rule="evenodd" d="M35.3404 25.2106C38.8007 26.4445 41.2865 28.6528 42.3915 32.2419C42.5041 32.6082 42.8931 32.8143 43.2599 32.7014C43.6263 32.5888 43.832 32.1998 43.7194 31.833C42.4758 27.7951 39.7001 25.2899 35.8072 23.9018C35.446 23.7731 35.0481 23.9616 34.9193 24.3228C34.7906 24.6841 34.9796 25.0819 35.3404 25.2106Z" fill="#F27F0E"/>
</g>
</g>
<defs>
<clipPath id="clip0_208_3580">
<rect width="44" height="44" fill="white"/>
</clipPath>
<clipPath id="clip1_208_3580">
<rect width="44" height="44" fill="white"/>
</clipPath>
</defs>
</svg>
