<svg width="16" height="16" viewBox="0 0 16 16" fill="none" xmlns="http://www.w3.org/2000/svg">
<g id="Icons set ">
<path id="Vector" d="M14.7334 14.3328L1.60007 1.13281L0.733398 1.99948L5.7334 6.99948C5.00007 8.39948 4.00007 10.1995 4.00007 11.7328V13.0661C4.00007 13.9995 5.80007 14.5995 8.00006 14.5995C10.0667 14.5995 11.8001 14.0661 12.0001 13.2661L13.9334 15.1995L14.7334 14.3328ZM8.00006 9.99948C7.26673 9.99948 6.66673 9.39948 6.66673 8.66615C6.66673 8.46615 6.7334 8.26615 6.80007 8.06615L8.60006 9.86615C8.40006 9.93281 8.20007 9.99948 8.00006 9.99948ZM5.5334 2.33281H5.00007V1.33281H11.0001V2.33281H10.4667L9.86673 3.99948H9.46673C9.40007 4.19948 9.26673 4.53281 9.26673 4.99948C9.26673 5.59948 10.6001 7.33281 11.4001 9.26615L6.7334 4.59948C6.66673 4.33281 6.60007 4.13281 6.5334 3.99948H6.1334L5.5334 2.33281Z" fill="#4D3B3D"/>
</g>
</svg>
