<svg width="16" height="16" viewBox="0 0 16 16" fill="none" xmlns="http://www.w3.org/2000/svg">
<g id="Icons set ">
<path id="Vector" d="M10.6 6.74763C10.9529 6.30561 11.1875 5.78106 11.2818 5.22336C11.376 4.66565 11.3268 4.09313 11.1388 3.55968C10.9508 3.02624 10.6301 2.54941 10.2069 2.17409C9.78377 1.79877 9.27207 1.53731 8.71999 1.4143C8.48306 1.36492 8.24198 1.33814 7.99999 1.3343C7.41601 1.33548 6.84259 1.49006 6.33715 1.78256C5.83171 2.07507 5.41198 2.49522 5.11999 3.00096L10.92 8.78763C10.8501 8.69198 10.7744 8.60069 10.6933 8.5143C10.4645 8.28214 10.3286 7.97419 10.3115 7.64867C10.2943 7.32315 10.3969 7.00261 10.6 6.74763ZM8.66666 4.66763C8.5348 4.66763 8.40591 4.62853 8.29628 4.55528C8.18664 4.48202 8.1012 4.3779 8.05074 4.25609C8.00028 4.13427 7.98708 4.00022 8.0128 3.8709C8.03852 3.74158 8.10202 3.62279 8.19525 3.52956C8.28849 3.43632 8.40728 3.37283 8.5366 3.34711C8.66592 3.32138 8.79996 3.33459 8.92178 3.38504C9.0436 3.4355 9.14772 3.52095 9.22097 3.63058C9.29422 3.74022 9.33332 3.86911 9.33332 4.00096C9.33332 4.17777 9.26309 4.34734 9.13806 4.47237C9.01304 4.59739 8.84347 4.66763 8.66666 4.66763ZM4.66666 4.26096L1.59332 1.1543L0.73999 2.00096L5.19999 6.46096C5.26666 6.56096 5.33332 6.66763 5.40666 6.74763C5.60324 6.99778 5.7039 7.30998 5.69045 7.62785C5.67701 7.94573 5.55034 8.24831 5.33332 8.48096C4.88749 8.95233 4.57471 9.53356 4.42692 10.1653C4.27913 10.7971 4.30162 11.4567 4.49209 12.077C4.68257 12.6972 5.0342 13.2558 5.51111 13.6957C5.98801 14.1356 6.5731 14.4411 7.20666 14.581C7.46709 14.6391 7.73316 14.6681 7.99999 14.6676C8.69713 14.6717 9.38098 14.4769 9.97136 14.1062C10.5617 13.7354 11.0342 13.204 11.3333 12.5743L13.9133 15.1543L14.76 14.3076M7.33332 12.001C7.20147 12.001 7.07258 11.9619 6.96294 11.8886C6.85331 11.8154 6.76786 11.7112 6.7174 11.5894C6.66695 11.4676 6.65374 11.3336 6.67947 11.2042C6.70519 11.0749 6.76868 10.9561 6.86192 10.8629C6.95515 10.7697 7.07394 10.7062 7.20326 10.6804C7.33258 10.6547 7.46663 10.6679 7.58845 10.7184C7.71026 10.7688 7.81438 10.8543 7.88764 10.9639C7.96089 11.0736 7.99999 11.2024 7.99999 11.3343C7.99999 11.5111 7.92975 11.6807 7.80473 11.8057C7.6797 11.9307 7.51014 12.001 7.33332 12.001ZM9.33332 12.6676C9.20147 12.6676 9.07258 12.6285 8.96294 12.5553C8.85331 12.482 8.76786 12.3779 8.7174 12.2561C8.66695 12.1343 8.65374 12.0002 8.67947 11.8709C8.70519 11.7416 8.76868 11.6228 8.86192 11.5296C8.95515 11.4363 9.07394 11.3728 9.20326 11.3471C9.33258 11.3214 9.46663 11.3346 9.58845 11.385C9.71026 11.4355 9.81438 11.521 9.88764 11.6306C9.96089 11.7402 9.99999 11.8691 9.99999 12.001C9.99999 12.1778 9.92975 12.3473 9.80473 12.4724C9.6797 12.5974 9.51013 12.6676 9.33332 12.6676ZM8.66666 10.6676C8.48985 10.6676 8.32028 10.5974 8.19525 10.4724C8.07023 10.3473 7.99999 10.1778 7.99999 10.001C7.99998 9.90467 8.02084 9.80952 8.06112 9.72205C8.1014 9.63459 8.16015 9.55689 8.23332 9.4943L9.17332 10.4343C9.11073 10.5075 9.03303 10.5662 8.94557 10.6065C8.8581 10.6468 8.76295 10.6676 8.66666 10.6676Z" fill="#4D3B3D"/>
</g>
</svg>
