<svg width="48" height="30" viewBox="0 0 48 30" fill="none" xmlns="http://www.w3.org/2000/svg">
<rect x="1.28955" y="0.5" width="45.228" height="29" rx="3.5" fill="white" stroke="#B2BCCA"/>
<path fill-rule="evenodd" clip-rule="evenodd" d="M24.1467 21.0364C22.5368 22.284 20.4485 23.0371 18.1666 23.0371C13.0749 23.0371 8.94727 19.2875 8.94727 14.6621C8.94727 10.0367 13.0749 6.28711 18.1666 6.28711C20.4485 6.28711 22.5368 7.04023 24.1467 8.28778C25.7566 7.04023 27.8449 6.28711 30.1268 6.28711C35.2185 6.28711 39.3462 10.0367 39.3462 14.6621C39.3462 19.2875 35.2185 23.0371 30.1268 23.0371C27.8449 23.0371 25.7566 22.284 24.1467 21.0364Z" fill="#ED0006"/>
<path fill-rule="evenodd" clip-rule="evenodd" d="M24.1465 21.0365C26.1288 19.5004 27.3858 17.2146 27.3858 14.6621C27.3858 12.1096 26.1288 9.82386 24.1465 8.28773C25.7564 7.04021 27.8446 6.28711 30.1265 6.28711C35.2182 6.28711 39.3459 10.0367 39.3459 14.6621C39.3459 19.2875 35.2182 23.0371 30.1265 23.0371C27.8446 23.0371 25.7564 22.284 24.1465 21.0365Z" fill="#F9A000"/>
<path fill-rule="evenodd" clip-rule="evenodd" d="M24.1469 21.0357C26.1292 19.4996 27.3861 17.2138 27.3861 14.6614C27.3861 12.109 26.1292 9.82324 24.1469 8.28711C22.1647 9.82324 20.9077 12.109 20.9077 14.6614C20.9077 17.2138 22.1647 19.4996 24.1469 21.0357Z" fill="#FD6020"/>
</svg>
