<svg width="48" height="30" viewBox="0 0 48 30" fill="none" xmlns="http://www.w3.org/2000/svg">
<rect x="1.28931" y="0.5" width="45.2281" height="29" rx="3.5" fill="white" stroke="#B2BCCA"/>
<path fill-rule="evenodd" clip-rule="evenodd" d="M15.4059 19.8228H12.6054L10.5054 12.2404C10.4057 11.8916 10.194 11.5833 9.88271 11.438C9.10577 11.0727 8.24964 10.7821 7.31567 10.6355V10.3436H11.8271C12.4497 10.3436 12.9167 10.7821 12.9946 11.2914L14.0842 16.7608L16.8833 10.3436H19.606L15.4059 19.8228ZM21.1627 19.8228H18.5179L20.6957 10.3436H23.3406L21.1627 19.8228ZM26.7624 12.9696C26.8402 12.4591 27.3072 12.1672 27.852 12.1672C28.7081 12.0939 29.6407 12.2405 30.419 12.6044L30.886 10.5635C30.1077 10.2716 29.2516 10.125 28.4746 10.125C25.9076 10.125 24.0397 11.438 24.0397 13.2603C24.0397 14.6466 25.3628 15.3745 26.2968 15.813C27.3072 16.2503 27.6963 16.5422 27.6185 16.9794C27.6185 17.6353 26.8402 17.9272 26.0633 17.9272C25.1293 17.9272 24.1953 17.7086 23.3406 17.3434L22.8736 19.3856C23.8075 19.7495 24.818 19.8961 25.7519 19.8961C28.6303 19.9681 30.419 18.6564 30.419 16.6875C30.419 14.2081 26.7624 14.0628 26.7624 12.9696ZM39.6752 19.8228L37.5752 10.3436H35.3195C34.8525 10.3436 34.3855 10.6355 34.2298 11.0727L30.3411 19.8228H33.0638L33.6072 18.4377H36.9525L37.2639 19.8228H39.6752ZM35.7088 12.8962L36.4857 16.4688H34.3078L35.7088 12.8962Z" fill="#28356A"/>
</svg>
