<svg width="8" height="16" viewBox="0 0 8 16" fill="none" xmlns="http://www.w3.org/2000/svg">
<g id="Group">
<path id="Vector" d="M1.33341 1.33203H6.66675M2.00008 1.33203V3.19136C2.00007 3.71789 1.84419 4.23263 1.55208 4.6707L1.11475 5.3267C0.822518 5.76496 0.66663 6.27995 0.666748 6.8067V13.332C0.666748 13.6857 0.807224 14.0248 1.05727 14.2748C1.30732 14.5249 1.64646 14.6654 2.00008 14.6654H6.00008C6.3537 14.6654 6.69284 14.5249 6.94289 14.2748C7.19294 14.0248 7.33341 13.6857 7.33341 13.332V6.80603C7.3334 6.27951 7.17752 5.76477 6.88541 5.3267L6.44808 4.6707C6.15585 4.23244 5.99996 3.71745 6.00008 3.1907V1.33203" stroke="#4D3B3D" stroke-width="1.33333" stroke-linecap="round" stroke-linejoin="round"/>
<path id="Vector_2" d="M0.666748 9.99896C1.1946 9.7779 1.76115 9.66406 2.33341 9.66406C2.90568 9.66406 3.47223 9.7779 4.00008 9.99896C4.52791 10.2201 5.09447 10.334 5.66675 10.334C6.23903 10.334 6.80558 10.2201 7.33341 9.99896" stroke="#4D3B3D" stroke-width="1.33333" stroke-linecap="round" stroke-linejoin="round"/>
</g>
</svg>
